<mxfile host="Electron" agent="Mozilla/5.0 (X11; Linux x86_64) AppleWebKit/537.36 (KHTML, like Gecko) draw.io/26.1.1 Chrome/132.0.6834.210 Electron/34.3.3 Safari/537.36" version="26.1.1" pages="2">
  <diagram name="ER" id="-27OUtsQu1H8zbjGhFIa">
    <mxGraphModel dx="1466" dy="1899" grid="1" gridSize="10" guides="1" tooltips="1" connect="1" arrows="1" fold="1" page="1" pageScale="1" pageWidth="827" pageHeight="1169" math="0" shadow="0">
      <root>
        <mxCell id="0" />
        <mxCell id="1" parent="0" />
        <mxCell id="WqseuYp48h92VtD0BHuM-16" style="edgeStyle=orthogonalEdgeStyle;rounded=0;orthogonalLoop=1;jettySize=auto;html=1;" parent="1" source="13VMok92LzZCj9S2wdPh-1" target="WqseuYp48h92VtD0BHuM-14" edge="1">
          <mxGeometry relative="1" as="geometry" />
        </mxCell>
        <mxCell id="WqseuYp48h92VtD0BHuM-17" value="1" style="edgeLabel;html=1;align=center;verticalAlign=middle;resizable=0;points=[];" parent="WqseuYp48h92VtD0BHuM-16" vertex="1" connectable="0">
          <mxGeometry x="0.6632" y="2" relative="1" as="geometry">
            <mxPoint y="-2" as="offset" />
          </mxGeometry>
        </mxCell>
        <mxCell id="WqseuYp48h92VtD0BHuM-43" style="edgeStyle=none;rounded=0;orthogonalLoop=1;jettySize=auto;html=1;" parent="1" source="13VMok92LzZCj9S2wdPh-1" target="WqseuYp48h92VtD0BHuM-42" edge="1">
          <mxGeometry relative="1" as="geometry" />
        </mxCell>
        <mxCell id="WqseuYp48h92VtD0BHuM-45" value="1" style="edgeLabel;html=1;align=center;verticalAlign=middle;resizable=0;points=[];" parent="WqseuYp48h92VtD0BHuM-43" vertex="1" connectable="0">
          <mxGeometry x="0.7053" relative="1" as="geometry">
            <mxPoint as="offset" />
          </mxGeometry>
        </mxCell>
        <mxCell id="HD9Zg6J0hAq_qelVRoTC-34" style="edgeStyle=none;rounded=0;orthogonalLoop=1;jettySize=auto;html=1;" parent="1" source="13VMok92LzZCj9S2wdPh-1" target="HD9Zg6J0hAq_qelVRoTC-32" edge="1">
          <mxGeometry relative="1" as="geometry" />
        </mxCell>
        <mxCell id="HD9Zg6J0hAq_qelVRoTC-41" value="1" style="edgeLabel;html=1;align=center;verticalAlign=middle;resizable=0;points=[];" parent="HD9Zg6J0hAq_qelVRoTC-34" vertex="1" connectable="0">
          <mxGeometry x="0.8281" relative="1" as="geometry">
            <mxPoint y="-9" as="offset" />
          </mxGeometry>
        </mxCell>
        <mxCell id="HD9Zg6J0hAq_qelVRoTC-158" style="edgeStyle=none;rounded=0;orthogonalLoop=1;jettySize=auto;html=1;" parent="1" source="13VMok92LzZCj9S2wdPh-1" target="HD9Zg6J0hAq_qelVRoTC-133" edge="1">
          <mxGeometry relative="1" as="geometry" />
        </mxCell>
        <mxCell id="HD9Zg6J0hAq_qelVRoTC-159" value="N" style="edgeLabel;html=1;align=center;verticalAlign=middle;resizable=0;points=[];" parent="HD9Zg6J0hAq_qelVRoTC-158" vertex="1" connectable="0">
          <mxGeometry x="0.9138" y="-1" relative="1" as="geometry">
            <mxPoint as="offset" />
          </mxGeometry>
        </mxCell>
        <mxCell id="HD9Zg6J0hAq_qelVRoTC-201" style="edgeStyle=none;rounded=0;orthogonalLoop=1;jettySize=auto;html=1;" parent="1" source="13VMok92LzZCj9S2wdPh-1" target="HD9Zg6J0hAq_qelVRoTC-160" edge="1">
          <mxGeometry relative="1" as="geometry">
            <Array as="points">
              <mxPoint x="1000" y="1230" />
            </Array>
          </mxGeometry>
        </mxCell>
        <mxCell id="HD9Zg6J0hAq_qelVRoTC-202" value="N" style="edgeLabel;html=1;align=center;verticalAlign=middle;resizable=0;points=[];" parent="HD9Zg6J0hAq_qelVRoTC-201" vertex="1" connectable="0">
          <mxGeometry x="0.9108" relative="1" as="geometry">
            <mxPoint as="offset" />
          </mxGeometry>
        </mxCell>
        <mxCell id="HD9Zg6J0hAq_qelVRoTC-214" style="edgeStyle=none;rounded=0;orthogonalLoop=1;jettySize=auto;html=1;" parent="1" source="13VMok92LzZCj9S2wdPh-1" target="HD9Zg6J0hAq_qelVRoTC-212" edge="1">
          <mxGeometry relative="1" as="geometry">
            <Array as="points">
              <mxPoint x="820" y="1640" />
            </Array>
          </mxGeometry>
        </mxCell>
        <mxCell id="HD9Zg6J0hAq_qelVRoTC-215" value="1" style="edgeLabel;html=1;align=center;verticalAlign=middle;resizable=0;points=[];" parent="HD9Zg6J0hAq_qelVRoTC-214" vertex="1" connectable="0">
          <mxGeometry x="0.9316" relative="1" as="geometry">
            <mxPoint as="offset" />
          </mxGeometry>
        </mxCell>
        <mxCell id="HD9Zg6J0hAq_qelVRoTC-280" style="edgeStyle=none;rounded=0;orthogonalLoop=1;jettySize=auto;html=1;" parent="1" source="13VMok92LzZCj9S2wdPh-1" target="HD9Zg6J0hAq_qelVRoTC-278" edge="1">
          <mxGeometry relative="1" as="geometry">
            <Array as="points">
              <mxPoint x="870" y="1500" />
            </Array>
          </mxGeometry>
        </mxCell>
        <mxCell id="HD9Zg6J0hAq_qelVRoTC-281" value="1" style="edgeLabel;html=1;align=center;verticalAlign=middle;resizable=0;points=[];" parent="HD9Zg6J0hAq_qelVRoTC-280" vertex="1" connectable="0">
          <mxGeometry x="0.9282" y="-2" relative="1" as="geometry">
            <mxPoint as="offset" />
          </mxGeometry>
        </mxCell>
        <mxCell id="13VMok92LzZCj9S2wdPh-1" value="usuarios" style="whiteSpace=wrap;html=1;align=center;" parent="1" vertex="1">
          <mxGeometry x="730" y="340" width="100" height="40" as="geometry" />
        </mxCell>
        <mxCell id="13VMok92LzZCj9S2wdPh-6" style="edgeStyle=none;rounded=0;orthogonalLoop=1;jettySize=auto;html=1;" parent="1" source="13VMok92LzZCj9S2wdPh-2" target="13VMok92LzZCj9S2wdPh-1" edge="1">
          <mxGeometry relative="1" as="geometry" />
        </mxCell>
        <mxCell id="13VMok92LzZCj9S2wdPh-2" value="usuario" style="ellipse;whiteSpace=wrap;html=1;align=center;" parent="1" vertex="1">
          <mxGeometry x="520" y="120" width="100" height="40" as="geometry" />
        </mxCell>
        <mxCell id="13VMok92LzZCj9S2wdPh-5" style="edgeStyle=none;rounded=0;orthogonalLoop=1;jettySize=auto;html=1;" parent="1" source="13VMok92LzZCj9S2wdPh-3" target="13VMok92LzZCj9S2wdPh-1" edge="1">
          <mxGeometry relative="1" as="geometry" />
        </mxCell>
        <mxCell id="13VMok92LzZCj9S2wdPh-3" value="usuario id" style="ellipse;whiteSpace=wrap;html=1;align=center;fontStyle=4;" parent="1" vertex="1">
          <mxGeometry x="550" y="240" width="100" height="40" as="geometry" />
        </mxCell>
        <mxCell id="WqseuYp48h92VtD0BHuM-15" style="edgeStyle=orthogonalEdgeStyle;rounded=0;orthogonalLoop=1;jettySize=auto;html=1;" parent="1" source="13VMok92LzZCj9S2wdPh-7" target="WqseuYp48h92VtD0BHuM-14" edge="1">
          <mxGeometry relative="1" as="geometry" />
        </mxCell>
        <mxCell id="WqseuYp48h92VtD0BHuM-18" value="1" style="edgeLabel;html=1;align=center;verticalAlign=middle;resizable=0;points=[];" parent="WqseuYp48h92VtD0BHuM-15" vertex="1" connectable="0">
          <mxGeometry x="0.6222" y="-2" relative="1" as="geometry">
            <mxPoint y="-2" as="offset" />
          </mxGeometry>
        </mxCell>
        <mxCell id="13VMok92LzZCj9S2wdPh-15" style="edgeStyle=none;rounded=0;orthogonalLoop=1;jettySize=auto;html=1;" parent="1" source="13VMok92LzZCj9S2wdPh-12" target="13VMok92LzZCj9S2wdPh-1" edge="1">
          <mxGeometry relative="1" as="geometry" />
        </mxCell>
        <mxCell id="13VMok92LzZCj9S2wdPh-12" value="activo" style="ellipse;whiteSpace=wrap;html=1;align=center;" parent="1" vertex="1">
          <mxGeometry x="560" y="10" width="100" height="40" as="geometry" />
        </mxCell>
        <mxCell id="WqseuYp48h92VtD0BHuM-44" style="edgeStyle=none;rounded=0;orthogonalLoop=1;jettySize=auto;html=1;" parent="1" source="WqseuYp48h92VtD0BHuM-3" target="WqseuYp48h92VtD0BHuM-42" edge="1">
          <mxGeometry relative="1" as="geometry" />
        </mxCell>
        <mxCell id="WqseuYp48h92VtD0BHuM-46" value="1" style="edgeLabel;html=1;align=center;verticalAlign=middle;resizable=0;points=[];" parent="WqseuYp48h92VtD0BHuM-44" vertex="1" connectable="0">
          <mxGeometry x="0.7012" y="2" relative="1" as="geometry">
            <mxPoint y="-2" as="offset" />
          </mxGeometry>
        </mxCell>
        <mxCell id="HD9Zg6J0hAq_qelVRoTC-55" style="edgeStyle=none;rounded=0;orthogonalLoop=1;jettySize=auto;html=1;" parent="1" source="WqseuYp48h92VtD0BHuM-3" target="HD9Zg6J0hAq_qelVRoTC-54" edge="1">
          <mxGeometry relative="1" as="geometry" />
        </mxCell>
        <mxCell id="HD9Zg6J0hAq_qelVRoTC-61" value="1" style="edgeLabel;html=1;align=center;verticalAlign=middle;resizable=0;points=[];" parent="HD9Zg6J0hAq_qelVRoTC-55" vertex="1" connectable="0">
          <mxGeometry x="0.8258" y="1" relative="1" as="geometry">
            <mxPoint as="offset" />
          </mxGeometry>
        </mxCell>
        <mxCell id="IABFnMavRm2eJxevLNEV-24" style="edgeStyle=none;rounded=0;orthogonalLoop=1;jettySize=auto;html=1;" parent="1" source="WqseuYp48h92VtD0BHuM-3" target="IABFnMavRm2eJxevLNEV-3" edge="1">
          <mxGeometry relative="1" as="geometry">
            <mxPoint x="563.98042845808" y="1786.9902142290402" as="targetPoint" />
            <Array as="points">
              <mxPoint x="560" y="1810" />
            </Array>
          </mxGeometry>
        </mxCell>
        <mxCell id="IABFnMavRm2eJxevLNEV-27" value="N" style="edgeLabel;html=1;align=center;verticalAlign=middle;resizable=0;points=[];" parent="IABFnMavRm2eJxevLNEV-24" vertex="1" connectable="0">
          <mxGeometry x="0.9683" y="1" relative="1" as="geometry">
            <mxPoint x="-1" as="offset" />
          </mxGeometry>
        </mxCell>
        <mxCell id="WqseuYp48h92VtD0BHuM-3" value="clientes" style="whiteSpace=wrap;html=1;align=center;" parent="1" vertex="1">
          <mxGeometry x="1381" y="340" width="100" height="40" as="geometry" />
        </mxCell>
        <mxCell id="WqseuYp48h92VtD0BHuM-4" style="edgeStyle=none;rounded=0;orthogonalLoop=1;jettySize=auto;html=1;" parent="1" source="WqseuYp48h92VtD0BHuM-5" target="WqseuYp48h92VtD0BHuM-3" edge="1">
          <mxGeometry relative="1" as="geometry" />
        </mxCell>
        <mxCell id="WqseuYp48h92VtD0BHuM-5" value="usuario_id" style="ellipse;whiteSpace=wrap;html=1;align=center;" parent="1" vertex="1">
          <mxGeometry x="1251" y="190" width="100" height="40" as="geometry" />
        </mxCell>
        <mxCell id="WqseuYp48h92VtD0BHuM-6" style="edgeStyle=none;rounded=0;orthogonalLoop=1;jettySize=auto;html=1;" parent="1" source="WqseuYp48h92VtD0BHuM-7" target="WqseuYp48h92VtD0BHuM-3" edge="1">
          <mxGeometry relative="1" as="geometry" />
        </mxCell>
        <mxCell id="WqseuYp48h92VtD0BHuM-7" value="cliente id" style="ellipse;whiteSpace=wrap;html=1;align=center;fontStyle=4;" parent="1" vertex="1">
          <mxGeometry x="1241" y="240" width="100" height="40" as="geometry" />
        </mxCell>
        <mxCell id="WqseuYp48h92VtD0BHuM-8" style="edgeStyle=none;rounded=0;orthogonalLoop=1;jettySize=auto;html=1;" parent="1" source="WqseuYp48h92VtD0BHuM-9" target="WqseuYp48h92VtD0BHuM-3" edge="1">
          <mxGeometry relative="1" as="geometry" />
        </mxCell>
        <mxCell id="WqseuYp48h92VtD0BHuM-9" value="nit" style="ellipse;whiteSpace=wrap;html=1;align=center;" parent="1" vertex="1">
          <mxGeometry x="1281" y="140" width="100" height="40" as="geometry" />
        </mxCell>
        <mxCell id="WqseuYp48h92VtD0BHuM-10" style="edgeStyle=none;rounded=0;orthogonalLoop=1;jettySize=auto;html=1;" parent="1" source="WqseuYp48h92VtD0BHuM-11" target="WqseuYp48h92VtD0BHuM-3" edge="1">
          <mxGeometry relative="1" as="geometry" />
        </mxCell>
        <mxCell id="WqseuYp48h92VtD0BHuM-11" value="direccion" style="ellipse;whiteSpace=wrap;html=1;align=center;" parent="1" vertex="1">
          <mxGeometry x="1361" y="110" width="100" height="40" as="geometry" />
        </mxCell>
        <mxCell id="WqseuYp48h92VtD0BHuM-14" value="tiene" style="shape=rhombus;perimeter=rhombusPerimeter;whiteSpace=wrap;html=1;align=center;" parent="1" vertex="1">
          <mxGeometry x="380" y="330" width="120" height="60" as="geometry" />
        </mxCell>
        <mxCell id="WqseuYp48h92VtD0BHuM-20" style="rounded=0;orthogonalLoop=1;jettySize=auto;html=1;" parent="1" source="WqseuYp48h92VtD0BHuM-19" target="13VMok92LzZCj9S2wdPh-1" edge="1">
          <mxGeometry relative="1" as="geometry" />
        </mxCell>
        <mxCell id="WqseuYp48h92VtD0BHuM-19" value="rol_id" style="ellipse;whiteSpace=wrap;html=1;align=center;" parent="1" vertex="1">
          <mxGeometry x="520" y="180" width="100" height="40" as="geometry" />
        </mxCell>
        <mxCell id="WqseuYp48h92VtD0BHuM-28" style="edgeStyle=none;rounded=0;orthogonalLoop=1;jettySize=auto;html=1;" parent="1" source="WqseuYp48h92VtD0BHuM-27" target="13VMok92LzZCj9S2wdPh-1" edge="1">
          <mxGeometry relative="1" as="geometry" />
        </mxCell>
        <mxCell id="WqseuYp48h92VtD0BHuM-27" value="contraseña" style="ellipse;whiteSpace=wrap;html=1;align=center;" parent="1" vertex="1">
          <mxGeometry x="530" y="60" width="100" height="40" as="geometry" />
        </mxCell>
        <mxCell id="HD9Zg6J0hAq_qelVRoTC-199" style="edgeStyle=none;rounded=0;orthogonalLoop=1;jettySize=auto;html=1;" parent="1" source="WqseuYp48h92VtD0BHuM-31" target="HD9Zg6J0hAq_qelVRoTC-160" edge="1">
          <mxGeometry relative="1" as="geometry">
            <Array as="points">
              <mxPoint x="1830" y="1160" />
            </Array>
          </mxGeometry>
        </mxCell>
        <mxCell id="HD9Zg6J0hAq_qelVRoTC-200" value="N" style="edgeLabel;html=1;align=center;verticalAlign=middle;resizable=0;points=[];" parent="HD9Zg6J0hAq_qelVRoTC-199" vertex="1" connectable="0">
          <mxGeometry x="0.8694" y="-2" relative="1" as="geometry">
            <mxPoint as="offset" />
          </mxGeometry>
        </mxCell>
        <mxCell id="WqseuYp48h92VtD0BHuM-31" value="vehiculos" style="whiteSpace=wrap;html=1;align=center;" parent="1" vertex="1">
          <mxGeometry x="1778" y="740" width="100" height="40" as="geometry" />
        </mxCell>
        <mxCell id="WqseuYp48h92VtD0BHuM-32" style="edgeStyle=none;rounded=0;orthogonalLoop=1;jettySize=auto;html=1;" parent="1" source="WqseuYp48h92VtD0BHuM-33" target="WqseuYp48h92VtD0BHuM-31" edge="1">
          <mxGeometry relative="1" as="geometry" />
        </mxCell>
        <mxCell id="WqseuYp48h92VtD0BHuM-33" value="marca" style="ellipse;whiteSpace=wrap;html=1;align=center;" parent="1" vertex="1">
          <mxGeometry x="1598" y="590" width="100" height="40" as="geometry" />
        </mxCell>
        <mxCell id="WqseuYp48h92VtD0BHuM-34" style="edgeStyle=none;rounded=0;orthogonalLoop=1;jettySize=auto;html=1;" parent="1" source="WqseuYp48h92VtD0BHuM-35" target="WqseuYp48h92VtD0BHuM-31" edge="1">
          <mxGeometry relative="1" as="geometry" />
        </mxCell>
        <mxCell id="WqseuYp48h92VtD0BHuM-35" value="vehiculo id" style="ellipse;whiteSpace=wrap;html=1;align=center;fontStyle=4;" parent="1" vertex="1">
          <mxGeometry x="1598" y="685" width="100" height="40" as="geometry" />
        </mxCell>
        <mxCell id="HD9Zg6J0hAq_qelVRoTC-130" style="edgeStyle=none;rounded=0;orthogonalLoop=1;jettySize=auto;html=1;" parent="1" source="WqseuYp48h92VtD0BHuM-42" target="HD9Zg6J0hAq_qelVRoTC-64" edge="1">
          <mxGeometry relative="1" as="geometry" />
        </mxCell>
        <mxCell id="HD9Zg6J0hAq_qelVRoTC-132" value="1" style="edgeLabel;html=1;align=center;verticalAlign=middle;resizable=0;points=[];" parent="HD9Zg6J0hAq_qelVRoTC-130" vertex="1" connectable="0">
          <mxGeometry x="-0.8809" y="1" relative="1" as="geometry">
            <mxPoint as="offset" />
          </mxGeometry>
        </mxCell>
        <mxCell id="WqseuYp48h92VtD0BHuM-42" value="es" style="shape=rhombus;perimeter=rhombusPerimeter;whiteSpace=wrap;html=1;align=center;" parent="1" vertex="1">
          <mxGeometry x="1020" y="330" width="120" height="60" as="geometry" />
        </mxCell>
        <mxCell id="HD9Zg6J0hAq_qelVRoTC-1" value="descripción_rol" style="ellipse;whiteSpace=wrap;html=1;align=center;" parent="1" vertex="1">
          <mxGeometry x="210" y="250" width="100" height="40" as="geometry" />
        </mxCell>
        <mxCell id="HD9Zg6J0hAq_qelVRoTC-63" style="edgeStyle=none;rounded=0;orthogonalLoop=1;jettySize=auto;html=1;" parent="1" source="HD9Zg6J0hAq_qelVRoTC-6" target="13VMok92LzZCj9S2wdPh-1" edge="1">
          <mxGeometry relative="1" as="geometry" />
        </mxCell>
        <mxCell id="HD9Zg6J0hAq_qelVRoTC-6" value="nombres" style="ellipse;whiteSpace=wrap;html=1;align=center;" parent="1" vertex="1">
          <mxGeometry x="860" y="-30" width="100" height="40" as="geometry" />
        </mxCell>
        <mxCell id="HD9Zg6J0hAq_qelVRoTC-19" style="edgeStyle=none;rounded=0;orthogonalLoop=1;jettySize=auto;html=1;" parent="1" source="HD9Zg6J0hAq_qelVRoTC-7" target="13VMok92LzZCj9S2wdPh-1" edge="1">
          <mxGeometry relative="1" as="geometry" />
        </mxCell>
        <mxCell id="HD9Zg6J0hAq_qelVRoTC-7" value="creado_en" style="ellipse;whiteSpace=wrap;html=1;align=center;fontStyle=0;" parent="1" vertex="1">
          <mxGeometry x="950" y="80" width="100" height="40" as="geometry" />
        </mxCell>
        <mxCell id="HD9Zg6J0hAq_qelVRoTC-20" style="edgeStyle=none;rounded=0;orthogonalLoop=1;jettySize=auto;html=1;" parent="1" source="HD9Zg6J0hAq_qelVRoTC-8" target="13VMok92LzZCj9S2wdPh-1" edge="1">
          <mxGeometry relative="1" as="geometry" />
        </mxCell>
        <mxCell id="HD9Zg6J0hAq_qelVRoTC-8" value="apellidos" style="ellipse;whiteSpace=wrap;html=1;align=center;" parent="1" vertex="1">
          <mxGeometry x="890" y="30" width="100" height="40" as="geometry" />
        </mxCell>
        <mxCell id="HD9Zg6J0hAq_qelVRoTC-22" style="edgeStyle=none;rounded=0;orthogonalLoop=1;jettySize=auto;html=1;" parent="1" source="HD9Zg6J0hAq_qelVRoTC-9" target="13VMok92LzZCj9S2wdPh-1" edge="1">
          <mxGeometry relative="1" as="geometry" />
        </mxCell>
        <mxCell id="HD9Zg6J0hAq_qelVRoTC-9" value="correo" style="ellipse;whiteSpace=wrap;html=1;align=center;" parent="1" vertex="1">
          <mxGeometry x="640" y="-40" width="100" height="40" as="geometry" />
        </mxCell>
        <mxCell id="HD9Zg6J0hAq_qelVRoTC-21" style="edgeStyle=none;rounded=0;orthogonalLoop=1;jettySize=auto;html=1;" parent="1" source="HD9Zg6J0hAq_qelVRoTC-10" target="13VMok92LzZCj9S2wdPh-1" edge="1">
          <mxGeometry relative="1" as="geometry" />
        </mxCell>
        <mxCell id="HD9Zg6J0hAq_qelVRoTC-10" value="telefono" style="ellipse;whiteSpace=wrap;html=1;align=center;" parent="1" vertex="1">
          <mxGeometry x="750" y="-70" width="100" height="40" as="geometry" />
        </mxCell>
        <mxCell id="13VMok92LzZCj9S2wdPh-7" value="roles_usuario" style="whiteSpace=wrap;html=1;align=center;container=0;" parent="1" vertex="1">
          <mxGeometry x="60" y="340" width="100" height="40" as="geometry" />
        </mxCell>
        <mxCell id="13VMok92LzZCj9S2wdPh-8" style="edgeStyle=none;rounded=0;orthogonalLoop=1;jettySize=auto;html=1;" parent="1" source="13VMok92LzZCj9S2wdPh-9" target="13VMok92LzZCj9S2wdPh-7" edge="1">
          <mxGeometry relative="1" as="geometry" />
        </mxCell>
        <mxCell id="13VMok92LzZCj9S2wdPh-9" value="nombre_rol" style="ellipse;whiteSpace=wrap;html=1;align=center;container=0;" parent="1" vertex="1">
          <mxGeometry x="90" y="250" width="100" height="40" as="geometry" />
        </mxCell>
        <mxCell id="13VMok92LzZCj9S2wdPh-10" style="edgeStyle=none;rounded=0;orthogonalLoop=1;jettySize=auto;html=1;" parent="1" source="13VMok92LzZCj9S2wdPh-11" target="13VMok92LzZCj9S2wdPh-7" edge="1">
          <mxGeometry relative="1" as="geometry" />
        </mxCell>
        <mxCell id="13VMok92LzZCj9S2wdPh-11" value="rol id" style="ellipse;whiteSpace=wrap;html=1;align=center;fontStyle=4;container=0;" parent="1" vertex="1">
          <mxGeometry x="-30" y="250" width="100" height="40" as="geometry" />
        </mxCell>
        <mxCell id="HD9Zg6J0hAq_qelVRoTC-4" style="edgeStyle=none;rounded=0;orthogonalLoop=1;jettySize=auto;html=1;" parent="1" source="HD9Zg6J0hAq_qelVRoTC-1" target="13VMok92LzZCj9S2wdPh-7" edge="1">
          <mxGeometry relative="1" as="geometry" />
        </mxCell>
        <mxCell id="HD9Zg6J0hAq_qelVRoTC-14" style="edgeStyle=none;rounded=0;orthogonalLoop=1;jettySize=auto;html=1;" parent="1" source="HD9Zg6J0hAq_qelVRoTC-12" target="13VMok92LzZCj9S2wdPh-1" edge="1">
          <mxGeometry relative="1" as="geometry" />
        </mxCell>
        <mxCell id="HD9Zg6J0hAq_qelVRoTC-12" value="&lt;span style=&quot;color: rgb(0, 0, 0); font-family: Helvetica; font-size: 12px; font-style: normal; font-variant-ligatures: normal; font-variant-caps: normal; font-weight: 400; letter-spacing: normal; orphans: 2; text-align: center; text-indent: 0px; text-transform: none; widows: 2; word-spacing: 0px; -webkit-text-stroke-width: 0px; white-space: normal; background-color: rgb(251, 251, 251); text-decoration-thickness: initial; text-decoration-style: initial; text-decoration-color: initial; display: inline !important; float: none;&quot;&gt;actualizado_en&lt;/span&gt;" style="ellipse;whiteSpace=wrap;html=1;align=center;fontStyle=0;" parent="1" vertex="1">
          <mxGeometry x="960" y="130" width="100" height="40" as="geometry" />
        </mxCell>
        <mxCell id="HD9Zg6J0hAq_qelVRoTC-18" style="edgeStyle=none;rounded=0;orthogonalLoop=1;jettySize=auto;html=1;" parent="1" source="HD9Zg6J0hAq_qelVRoTC-13" target="13VMok92LzZCj9S2wdPh-1" edge="1">
          <mxGeometry relative="1" as="geometry" />
        </mxCell>
        <mxCell id="HD9Zg6J0hAq_qelVRoTC-13" value="dos_factores_activo" style="ellipse;whiteSpace=wrap;html=1;align=center;fontStyle=0;" parent="1" vertex="1">
          <mxGeometry x="980" y="190" width="100" height="40" as="geometry" />
        </mxCell>
        <mxCell id="HD9Zg6J0hAq_qelVRoTC-17" style="edgeStyle=none;rounded=0;orthogonalLoop=1;jettySize=auto;html=1;" parent="1" source="HD9Zg6J0hAq_qelVRoTC-16" target="13VMok92LzZCj9S2wdPh-1" edge="1">
          <mxGeometry relative="1" as="geometry" />
        </mxCell>
        <mxCell id="HD9Zg6J0hAq_qelVRoTC-16" value="metodo_dos_factores" style="ellipse;whiteSpace=wrap;html=1;align=center;fontStyle=0;" parent="1" vertex="1">
          <mxGeometry x="940" y="250" width="100" height="40" as="geometry" />
        </mxCell>
        <mxCell id="HD9Zg6J0hAq_qelVRoTC-25" value="token" style="ellipse;whiteSpace=wrap;html=1;align=center;" parent="1" vertex="1">
          <mxGeometry x="620" y="-530" width="100" height="40" as="geometry" />
        </mxCell>
        <mxCell id="HD9Zg6J0hAq_qelVRoTC-33" style="edgeStyle=none;rounded=0;orthogonalLoop=1;jettySize=auto;html=1;" parent="1" source="HD9Zg6J0hAq_qelVRoTC-26" target="HD9Zg6J0hAq_qelVRoTC-32" edge="1">
          <mxGeometry relative="1" as="geometry" />
        </mxCell>
        <mxCell id="HD9Zg6J0hAq_qelVRoTC-42" value="N" style="edgeLabel;html=1;align=center;verticalAlign=middle;resizable=0;points=[];" parent="HD9Zg6J0hAq_qelVRoTC-33" vertex="1" connectable="0">
          <mxGeometry x="0.4" y="1" relative="1" as="geometry">
            <mxPoint as="offset" />
          </mxGeometry>
        </mxCell>
        <mxCell id="HD9Zg6J0hAq_qelVRoTC-26" value="recuperacion_contraseña" style="whiteSpace=wrap;html=1;align=center;container=0;" parent="1" vertex="1">
          <mxGeometry x="660" y="-330" width="150" height="40" as="geometry" />
        </mxCell>
        <mxCell id="HD9Zg6J0hAq_qelVRoTC-27" style="edgeStyle=none;rounded=0;orthogonalLoop=1;jettySize=auto;html=1;" parent="1" source="HD9Zg6J0hAq_qelVRoTC-28" target="HD9Zg6J0hAq_qelVRoTC-26" edge="1">
          <mxGeometry relative="1" as="geometry" />
        </mxCell>
        <mxCell id="HD9Zg6J0hAq_qelVRoTC-28" value="usuario_id" style="ellipse;whiteSpace=wrap;html=1;align=center;container=0;" parent="1" vertex="1">
          <mxGeometry x="575" y="-480" width="100" height="40" as="geometry" />
        </mxCell>
        <mxCell id="HD9Zg6J0hAq_qelVRoTC-29" style="edgeStyle=none;rounded=0;orthogonalLoop=1;jettySize=auto;html=1;" parent="1" source="HD9Zg6J0hAq_qelVRoTC-30" target="HD9Zg6J0hAq_qelVRoTC-26" edge="1">
          <mxGeometry relative="1" as="geometry" />
        </mxCell>
        <mxCell id="HD9Zg6J0hAq_qelVRoTC-30" value="id recuperacion" style="ellipse;whiteSpace=wrap;html=1;align=center;fontStyle=4;container=0;" parent="1" vertex="1">
          <mxGeometry x="570" y="-420" width="100" height="40" as="geometry" />
        </mxCell>
        <mxCell id="HD9Zg6J0hAq_qelVRoTC-31" style="edgeStyle=none;rounded=0;orthogonalLoop=1;jettySize=auto;html=1;" parent="1" source="HD9Zg6J0hAq_qelVRoTC-25" target="HD9Zg6J0hAq_qelVRoTC-26" edge="1">
          <mxGeometry relative="1" as="geometry" />
        </mxCell>
        <mxCell id="HD9Zg6J0hAq_qelVRoTC-32" value="tiene" style="shape=rhombus;perimeter=rhombusPerimeter;whiteSpace=wrap;html=1;align=center;" parent="1" vertex="1">
          <mxGeometry x="675" y="-210" width="120" height="60" as="geometry" />
        </mxCell>
        <mxCell id="HD9Zg6J0hAq_qelVRoTC-38" style="edgeStyle=none;rounded=0;orthogonalLoop=1;jettySize=auto;html=1;" parent="1" source="HD9Zg6J0hAq_qelVRoTC-35" target="HD9Zg6J0hAq_qelVRoTC-26" edge="1">
          <mxGeometry relative="1" as="geometry" />
        </mxCell>
        <mxCell id="HD9Zg6J0hAq_qelVRoTC-35" value="fecha_generado" style="ellipse;whiteSpace=wrap;html=1;align=center;" parent="1" vertex="1">
          <mxGeometry x="730" y="-550" width="100" height="40" as="geometry" />
        </mxCell>
        <mxCell id="HD9Zg6J0hAq_qelVRoTC-40" style="edgeStyle=none;rounded=0;orthogonalLoop=1;jettySize=auto;html=1;" parent="1" source="HD9Zg6J0hAq_qelVRoTC-36" target="HD9Zg6J0hAq_qelVRoTC-26" edge="1">
          <mxGeometry relative="1" as="geometry" />
        </mxCell>
        <mxCell id="HD9Zg6J0hAq_qelVRoTC-36" value="fecha_expiracion" style="ellipse;whiteSpace=wrap;html=1;align=center;" parent="1" vertex="1">
          <mxGeometry x="820" y="-510" width="100" height="40" as="geometry" />
        </mxCell>
        <mxCell id="HD9Zg6J0hAq_qelVRoTC-39" style="edgeStyle=none;rounded=0;orthogonalLoop=1;jettySize=auto;html=1;" parent="1" source="HD9Zg6J0hAq_qelVRoTC-37" target="HD9Zg6J0hAq_qelVRoTC-26" edge="1">
          <mxGeometry relative="1" as="geometry" />
        </mxCell>
        <mxCell id="HD9Zg6J0hAq_qelVRoTC-37" value="usado?" style="ellipse;whiteSpace=wrap;html=1;align=center;" parent="1" vertex="1">
          <mxGeometry x="840" y="-450" width="100" height="40" as="geometry" />
        </mxCell>
        <mxCell id="HD9Zg6J0hAq_qelVRoTC-49" style="edgeStyle=none;rounded=0;orthogonalLoop=1;jettySize=auto;html=1;entryX=0.5;entryY=0;entryDx=0;entryDy=0;" parent="1" source="HD9Zg6J0hAq_qelVRoTC-43" target="WqseuYp48h92VtD0BHuM-31" edge="1">
          <mxGeometry relative="1" as="geometry" />
        </mxCell>
        <mxCell id="HD9Zg6J0hAq_qelVRoTC-43" value="placa" style="ellipse;whiteSpace=wrap;html=1;align=center;" parent="1" vertex="1">
          <mxGeometry x="1727" y="500" width="100" height="40" as="geometry" />
        </mxCell>
        <mxCell id="HD9Zg6J0hAq_qelVRoTC-48" style="edgeStyle=none;rounded=0;orthogonalLoop=1;jettySize=auto;html=1;" parent="1" source="HD9Zg6J0hAq_qelVRoTC-44" target="WqseuYp48h92VtD0BHuM-31" edge="1">
          <mxGeometry relative="1" as="geometry" />
        </mxCell>
        <mxCell id="HD9Zg6J0hAq_qelVRoTC-44" value="modelo" style="ellipse;whiteSpace=wrap;html=1;align=center;fontStyle=0;" parent="1" vertex="1">
          <mxGeometry x="1637" y="540" width="100" height="40" as="geometry" />
        </mxCell>
        <mxCell id="HD9Zg6J0hAq_qelVRoTC-50" style="edgeStyle=none;rounded=0;orthogonalLoop=1;jettySize=auto;html=1;" parent="1" source="HD9Zg6J0hAq_qelVRoTC-45" target="WqseuYp48h92VtD0BHuM-31" edge="1">
          <mxGeometry relative="1" as="geometry" />
        </mxCell>
        <mxCell id="HD9Zg6J0hAq_qelVRoTC-45" value="color" style="ellipse;whiteSpace=wrap;html=1;align=center;" parent="1" vertex="1">
          <mxGeometry x="1847" y="500" width="100" height="40" as="geometry" />
        </mxCell>
        <mxCell id="HD9Zg6J0hAq_qelVRoTC-51" style="edgeStyle=none;rounded=0;orthogonalLoop=1;jettySize=auto;html=1;entryX=0.75;entryY=0;entryDx=0;entryDy=0;" parent="1" source="HD9Zg6J0hAq_qelVRoTC-46" target="WqseuYp48h92VtD0BHuM-31" edge="1">
          <mxGeometry relative="1" as="geometry" />
        </mxCell>
        <mxCell id="HD9Zg6J0hAq_qelVRoTC-46" value="fecha_creado" style="ellipse;whiteSpace=wrap;html=1;align=center;" parent="1" vertex="1">
          <mxGeometry x="1957" y="550" width="100" height="40" as="geometry" />
        </mxCell>
        <mxCell id="HD9Zg6J0hAq_qelVRoTC-52" style="edgeStyle=none;rounded=0;orthogonalLoop=1;jettySize=auto;html=1;" parent="1" source="HD9Zg6J0hAq_qelVRoTC-47" target="WqseuYp48h92VtD0BHuM-31" edge="1">
          <mxGeometry relative="1" as="geometry" />
        </mxCell>
        <mxCell id="HD9Zg6J0hAq_qelVRoTC-47" value="fecha_actualizado" style="ellipse;whiteSpace=wrap;html=1;align=center;" parent="1" vertex="1">
          <mxGeometry x="1977" y="610" width="100" height="40" as="geometry" />
        </mxCell>
        <mxCell id="HD9Zg6J0hAq_qelVRoTC-116" style="edgeStyle=none;rounded=0;orthogonalLoop=1;jettySize=auto;html=1;" parent="1" source="HD9Zg6J0hAq_qelVRoTC-53" target="WqseuYp48h92VtD0BHuM-31" edge="1">
          <mxGeometry relative="1" as="geometry" />
        </mxCell>
        <mxCell id="HD9Zg6J0hAq_qelVRoTC-53" value="cliente_id" style="ellipse;whiteSpace=wrap;html=1;align=center;" parent="1" vertex="1">
          <mxGeometry x="1579" y="640" width="100" height="40" as="geometry" />
        </mxCell>
        <mxCell id="HD9Zg6J0hAq_qelVRoTC-60" style="edgeStyle=none;rounded=0;orthogonalLoop=1;jettySize=auto;html=1;" parent="1" source="HD9Zg6J0hAq_qelVRoTC-54" target="WqseuYp48h92VtD0BHuM-31" edge="1">
          <mxGeometry relative="1" as="geometry" />
        </mxCell>
        <mxCell id="HD9Zg6J0hAq_qelVRoTC-62" value="N" style="edgeLabel;html=1;align=center;verticalAlign=middle;resizable=0;points=[];" parent="HD9Zg6J0hAq_qelVRoTC-60" vertex="1" connectable="0">
          <mxGeometry x="-0.84" relative="1" as="geometry">
            <mxPoint as="offset" />
          </mxGeometry>
        </mxCell>
        <mxCell id="HD9Zg6J0hAq_qelVRoTC-54" value="tiene" style="shape=rhombus;perimeter=rhombusPerimeter;whiteSpace=wrap;html=1;align=center;" parent="1" vertex="1">
          <mxGeometry x="1768" y="330" width="120" height="60" as="geometry" />
        </mxCell>
        <mxCell id="HD9Zg6J0hAq_qelVRoTC-117" style="edgeStyle=none;rounded=0;orthogonalLoop=1;jettySize=auto;html=1;" parent="1" source="HD9Zg6J0hAq_qelVRoTC-64" target="HD9Zg6J0hAq_qelVRoTC-99" edge="1">
          <mxGeometry relative="1" as="geometry" />
        </mxCell>
        <mxCell id="HD9Zg6J0hAq_qelVRoTC-124" value="1" style="edgeLabel;html=1;align=center;verticalAlign=middle;resizable=0;points=[];" parent="HD9Zg6J0hAq_qelVRoTC-117" vertex="1" connectable="0">
          <mxGeometry x="0.775" relative="1" as="geometry">
            <mxPoint as="offset" />
          </mxGeometry>
        </mxCell>
        <mxCell id="HD9Zg6J0hAq_qelVRoTC-64" value="proveedores" style="whiteSpace=wrap;html=1;align=center;" parent="1" vertex="1">
          <mxGeometry x="620" y="770" width="100" height="40" as="geometry" />
        </mxCell>
        <mxCell id="HD9Zg6J0hAq_qelVRoTC-67" style="edgeStyle=none;rounded=0;orthogonalLoop=1;jettySize=auto;html=1;" parent="1" source="HD9Zg6J0hAq_qelVRoTC-68" target="HD9Zg6J0hAq_qelVRoTC-64" edge="1">
          <mxGeometry relative="1" as="geometry" />
        </mxCell>
        <mxCell id="HD9Zg6J0hAq_qelVRoTC-68" value="proveedor id" style="ellipse;whiteSpace=wrap;html=1;align=center;fontStyle=4;" parent="1" vertex="1">
          <mxGeometry x="510" y="685" width="100" height="40" as="geometry" />
        </mxCell>
        <mxCell id="HD9Zg6J0hAq_qelVRoTC-77" value="drescripcion_servicio" style="ellipse;whiteSpace=wrap;html=1;align=center;" parent="1" vertex="1">
          <mxGeometry x="2490" y="850" width="100" height="40" as="geometry" />
        </mxCell>
        <mxCell id="IBQwi4AjMWrCEyMd1zAB-15" style="edgeStyle=orthogonalEdgeStyle;rounded=0;orthogonalLoop=1;jettySize=auto;html=1;" parent="1" source="HD9Zg6J0hAq_qelVRoTC-78" target="IBQwi4AjMWrCEyMd1zAB-2" edge="1">
          <mxGeometry relative="1" as="geometry">
            <Array as="points">
              <mxPoint x="2470" y="1233" />
            </Array>
          </mxGeometry>
        </mxCell>
        <mxCell id="IBQwi4AjMWrCEyMd1zAB-17" value="N" style="edgeLabel;html=1;align=center;verticalAlign=middle;resizable=0;points=[];" parent="IBQwi4AjMWrCEyMd1zAB-15" vertex="1" connectable="0">
          <mxGeometry x="0.872" y="1" relative="1" as="geometry">
            <mxPoint as="offset" />
          </mxGeometry>
        </mxCell>
        <mxCell id="HD9Zg6J0hAq_qelVRoTC-78" value="tipo_servicio" style="whiteSpace=wrap;html=1;align=center;container=0;" parent="1" vertex="1">
          <mxGeometry x="2420" y="1000" width="100" height="40" as="geometry" />
        </mxCell>
        <mxCell id="HD9Zg6J0hAq_qelVRoTC-79" style="edgeStyle=none;rounded=0;orthogonalLoop=1;jettySize=auto;html=1;" parent="1" source="HD9Zg6J0hAq_qelVRoTC-80" target="HD9Zg6J0hAq_qelVRoTC-78" edge="1">
          <mxGeometry relative="1" as="geometry" />
        </mxCell>
        <mxCell id="HD9Zg6J0hAq_qelVRoTC-80" value="nombre_servicio" style="ellipse;whiteSpace=wrap;html=1;align=center;container=0;" parent="1" vertex="1">
          <mxGeometry x="2360" y="850" width="100" height="40" as="geometry" />
        </mxCell>
        <mxCell id="HD9Zg6J0hAq_qelVRoTC-81" style="edgeStyle=none;rounded=0;orthogonalLoop=1;jettySize=auto;html=1;" parent="1" source="HD9Zg6J0hAq_qelVRoTC-82" target="HD9Zg6J0hAq_qelVRoTC-78" edge="1">
          <mxGeometry relative="1" as="geometry" />
        </mxCell>
        <mxCell id="HD9Zg6J0hAq_qelVRoTC-82" value="servicio id" style="ellipse;whiteSpace=wrap;html=1;align=center;fontStyle=4;container=0;" parent="1" vertex="1">
          <mxGeometry x="2330" y="910" width="100" height="40" as="geometry" />
        </mxCell>
        <mxCell id="HD9Zg6J0hAq_qelVRoTC-83" style="edgeStyle=none;rounded=0;orthogonalLoop=1;jettySize=auto;html=1;" parent="1" source="HD9Zg6J0hAq_qelVRoTC-77" target="HD9Zg6J0hAq_qelVRoTC-78" edge="1">
          <mxGeometry relative="1" as="geometry" />
        </mxCell>
        <mxCell id="HD9Zg6J0hAq_qelVRoTC-85" style="edgeStyle=none;rounded=0;orthogonalLoop=1;jettySize=auto;html=1;" parent="1" source="HD9Zg6J0hAq_qelVRoTC-84" target="HD9Zg6J0hAq_qelVRoTC-78" edge="1">
          <mxGeometry relative="1" as="geometry" />
        </mxCell>
        <mxCell id="HD9Zg6J0hAq_qelVRoTC-84" value="costo_servicio" style="ellipse;whiteSpace=wrap;html=1;align=center;" parent="1" vertex="1">
          <mxGeometry x="2540" y="910" width="100" height="40" as="geometry" />
        </mxCell>
        <mxCell id="HD9Zg6J0hAq_qelVRoTC-99" value="provee" style="shape=rhombus;perimeter=rhombusPerimeter;whiteSpace=wrap;html=1;align=center;" parent="1" vertex="1">
          <mxGeometry x="610" y="1130" width="120" height="60" as="geometry" />
        </mxCell>
        <mxCell id="HD9Zg6J0hAq_qelVRoTC-118" style="edgeStyle=none;rounded=0;orthogonalLoop=1;jettySize=auto;html=1;" parent="1" source="HD9Zg6J0hAq_qelVRoTC-100" target="HD9Zg6J0hAq_qelVRoTC-99" edge="1">
          <mxGeometry relative="1" as="geometry" />
        </mxCell>
        <mxCell id="HD9Zg6J0hAq_qelVRoTC-125" value="N" style="edgeLabel;html=1;align=center;verticalAlign=middle;resizable=0;points=[];" parent="HD9Zg6J0hAq_qelVRoTC-118" vertex="1" connectable="0">
          <mxGeometry x="0.812" y="2" relative="1" as="geometry">
            <mxPoint as="offset" />
          </mxGeometry>
        </mxCell>
        <mxCell id="HD9Zg6J0hAq_qelVRoTC-156" style="edgeStyle=none;rounded=0;orthogonalLoop=1;jettySize=auto;html=1;" parent="1" source="HD9Zg6J0hAq_qelVRoTC-100" target="HD9Zg6J0hAq_qelVRoTC-133" edge="1">
          <mxGeometry relative="1" as="geometry" />
        </mxCell>
        <mxCell id="HD9Zg6J0hAq_qelVRoTC-157" value="N" style="edgeLabel;html=1;align=center;verticalAlign=middle;resizable=0;points=[];" parent="HD9Zg6J0hAq_qelVRoTC-156" vertex="1" connectable="0">
          <mxGeometry x="0.7997" y="-1" relative="1" as="geometry">
            <mxPoint as="offset" />
          </mxGeometry>
        </mxCell>
        <mxCell id="HD9Zg6J0hAq_qelVRoTC-314" style="edgeStyle=none;rounded=0;orthogonalLoop=1;jettySize=auto;html=1;" parent="1" source="HD9Zg6J0hAq_qelVRoTC-100" target="HD9Zg6J0hAq_qelVRoTC-283" edge="1">
          <mxGeometry relative="1" as="geometry" />
        </mxCell>
        <mxCell id="HD9Zg6J0hAq_qelVRoTC-100" value="respuestos" style="whiteSpace=wrap;html=1;align=center;" parent="1" vertex="1">
          <mxGeometry x="159" y="1140" width="100" height="40" as="geometry" />
        </mxCell>
        <mxCell id="HD9Zg6J0hAq_qelVRoTC-101" style="edgeStyle=none;rounded=0;orthogonalLoop=1;jettySize=auto;html=1;" parent="1" source="HD9Zg6J0hAq_qelVRoTC-102" target="HD9Zg6J0hAq_qelVRoTC-100" edge="1">
          <mxGeometry relative="1" as="geometry" />
        </mxCell>
        <mxCell id="HD9Zg6J0hAq_qelVRoTC-102" value="marca_repuesto" style="ellipse;whiteSpace=wrap;html=1;align=center;" parent="1" vertex="1">
          <mxGeometry x="-40" y="980" width="100" height="40" as="geometry" />
        </mxCell>
        <mxCell id="HD9Zg6J0hAq_qelVRoTC-103" style="edgeStyle=none;rounded=0;orthogonalLoop=1;jettySize=auto;html=1;" parent="1" source="HD9Zg6J0hAq_qelVRoTC-104" target="HD9Zg6J0hAq_qelVRoTC-100" edge="1">
          <mxGeometry relative="1" as="geometry" />
        </mxCell>
        <mxCell id="HD9Zg6J0hAq_qelVRoTC-104" value="repuesto id" style="ellipse;whiteSpace=wrap;html=1;align=center;fontStyle=4;" parent="1" vertex="1">
          <mxGeometry x="-21" y="1085" width="100" height="40" as="geometry" />
        </mxCell>
        <mxCell id="HD9Zg6J0hAq_qelVRoTC-105" style="edgeStyle=none;rounded=0;orthogonalLoop=1;jettySize=auto;html=1;entryX=0.5;entryY=0;entryDx=0;entryDy=0;" parent="1" source="HD9Zg6J0hAq_qelVRoTC-106" target="HD9Zg6J0hAq_qelVRoTC-100" edge="1">
          <mxGeometry relative="1" as="geometry" />
        </mxCell>
        <mxCell id="HD9Zg6J0hAq_qelVRoTC-106" value="precio_compra" style="ellipse;whiteSpace=wrap;html=1;align=center;" parent="1" vertex="1">
          <mxGeometry x="30" y="860" width="100" height="40" as="geometry" />
        </mxCell>
        <mxCell id="HD9Zg6J0hAq_qelVRoTC-107" style="edgeStyle=none;rounded=0;orthogonalLoop=1;jettySize=auto;html=1;" parent="1" source="HD9Zg6J0hAq_qelVRoTC-108" target="HD9Zg6J0hAq_qelVRoTC-100" edge="1">
          <mxGeometry relative="1" as="geometry" />
        </mxCell>
        <mxCell id="HD9Zg6J0hAq_qelVRoTC-108" value="descripcion_repuesto" style="ellipse;whiteSpace=wrap;html=1;align=center;fontStyle=0;" parent="1" vertex="1">
          <mxGeometry x="-21" y="920" width="100" height="40" as="geometry" />
        </mxCell>
        <mxCell id="HD9Zg6J0hAq_qelVRoTC-109" style="edgeStyle=none;rounded=0;orthogonalLoop=1;jettySize=auto;html=1;" parent="1" source="HD9Zg6J0hAq_qelVRoTC-110" target="HD9Zg6J0hAq_qelVRoTC-100" edge="1">
          <mxGeometry relative="1" as="geometry" />
        </mxCell>
        <mxCell id="HD9Zg6J0hAq_qelVRoTC-110" value="precio_venta" style="ellipse;whiteSpace=wrap;html=1;align=center;" parent="1" vertex="1">
          <mxGeometry x="130" y="820" width="100" height="40" as="geometry" />
        </mxCell>
        <mxCell id="HD9Zg6J0hAq_qelVRoTC-111" style="edgeStyle=none;rounded=0;orthogonalLoop=1;jettySize=auto;html=1;entryX=0.75;entryY=0;entryDx=0;entryDy=0;" parent="1" source="HD9Zg6J0hAq_qelVRoTC-112" target="HD9Zg6J0hAq_qelVRoTC-100" edge="1">
          <mxGeometry relative="1" as="geometry" />
        </mxCell>
        <mxCell id="HD9Zg6J0hAq_qelVRoTC-112" value="fecha_creado" style="ellipse;whiteSpace=wrap;html=1;align=center;" parent="1" vertex="1">
          <mxGeometry x="380" y="910" width="100" height="40" as="geometry" />
        </mxCell>
        <mxCell id="HD9Zg6J0hAq_qelVRoTC-113" style="edgeStyle=none;rounded=0;orthogonalLoop=1;jettySize=auto;html=1;" parent="1" source="HD9Zg6J0hAq_qelVRoTC-114" target="HD9Zg6J0hAq_qelVRoTC-100" edge="1">
          <mxGeometry relative="1" as="geometry" />
        </mxCell>
        <mxCell id="HD9Zg6J0hAq_qelVRoTC-114" value="fecha_actualizado" style="ellipse;whiteSpace=wrap;html=1;align=center;" parent="1" vertex="1">
          <mxGeometry x="394.5" y="970" width="100" height="40" as="geometry" />
        </mxCell>
        <mxCell id="HD9Zg6J0hAq_qelVRoTC-115" value="nombre_repuesto" style="ellipse;whiteSpace=wrap;html=1;align=center;" parent="1" vertex="1">
          <mxGeometry x="-40" y="1040" width="100" height="40" as="geometry" />
        </mxCell>
        <mxCell id="HD9Zg6J0hAq_qelVRoTC-122" style="edgeStyle=none;rounded=0;orthogonalLoop=1;jettySize=auto;html=1;" parent="1" source="HD9Zg6J0hAq_qelVRoTC-119" target="HD9Zg6J0hAq_qelVRoTC-100" edge="1">
          <mxGeometry relative="1" as="geometry" />
        </mxCell>
        <mxCell id="HD9Zg6J0hAq_qelVRoTC-119" value="existencias" style="ellipse;whiteSpace=wrap;html=1;align=center;" parent="1" vertex="1">
          <mxGeometry x="259" y="820" width="100" height="40" as="geometry" />
        </mxCell>
        <mxCell id="HD9Zg6J0hAq_qelVRoTC-123" style="edgeStyle=none;rounded=0;orthogonalLoop=1;jettySize=auto;html=1;" parent="1" source="HD9Zg6J0hAq_qelVRoTC-121" target="HD9Zg6J0hAq_qelVRoTC-100" edge="1">
          <mxGeometry relative="1" as="geometry" />
        </mxCell>
        <mxCell id="HD9Zg6J0hAq_qelVRoTC-121" value="activo" style="ellipse;whiteSpace=wrap;html=1;align=center;" parent="1" vertex="1">
          <mxGeometry x="340" y="860" width="100" height="40" as="geometry" />
        </mxCell>
        <mxCell id="HD9Zg6J0hAq_qelVRoTC-128" style="edgeStyle=none;rounded=0;orthogonalLoop=1;jettySize=auto;html=1;" parent="1" source="HD9Zg6J0hAq_qelVRoTC-126" target="HD9Zg6J0hAq_qelVRoTC-64" edge="1">
          <mxGeometry relative="1" as="geometry" />
        </mxCell>
        <mxCell id="HD9Zg6J0hAq_qelVRoTC-126" value="usuario_id" style="ellipse;whiteSpace=wrap;html=1;align=center;fontStyle=0;" parent="1" vertex="1">
          <mxGeometry x="560" y="630" width="100" height="40" as="geometry" />
        </mxCell>
        <mxCell id="HD9Zg6J0hAq_qelVRoTC-129" style="edgeStyle=none;rounded=0;orthogonalLoop=1;jettySize=auto;html=1;" parent="1" source="HD9Zg6J0hAq_qelVRoTC-127" target="HD9Zg6J0hAq_qelVRoTC-64" edge="1">
          <mxGeometry relative="1" as="geometry" />
        </mxCell>
        <mxCell id="HD9Zg6J0hAq_qelVRoTC-127" value="tipo" style="ellipse;whiteSpace=wrap;html=1;align=center;fontStyle=0;" parent="1" vertex="1">
          <mxGeometry x="685" y="630" width="100" height="40" as="geometry" />
        </mxCell>
        <mxCell id="HD9Zg6J0hAq_qelVRoTC-131" value="persona/empresa" style="text;html=1;align=center;verticalAlign=middle;resizable=0;points=[];autosize=1;strokeColor=none;fillColor=none;" parent="1" vertex="1">
          <mxGeometry x="675" y="590" width="120" height="30" as="geometry" />
        </mxCell>
        <mxCell id="HD9Zg6J0hAq_qelVRoTC-133" value="movimineto_inventario" style="shape=associativeEntity;whiteSpace=wrap;html=1;align=center;" parent="1" vertex="1">
          <mxGeometry x="-491" y="1130" width="131" height="60" as="geometry" />
        </mxCell>
        <mxCell id="HD9Zg6J0hAq_qelVRoTC-134" style="edgeStyle=none;rounded=0;orthogonalLoop=1;jettySize=auto;html=1;" parent="1" source="HD9Zg6J0hAq_qelVRoTC-135" target="HD9Zg6J0hAq_qelVRoTC-133" edge="1">
          <mxGeometry relative="1" as="geometry" />
        </mxCell>
        <mxCell id="HD9Zg6J0hAq_qelVRoTC-135" value="tipo_movimiento" style="ellipse;whiteSpace=wrap;html=1;align=center;" parent="1" vertex="1">
          <mxGeometry x="-690" y="980" width="100" height="40" as="geometry" />
        </mxCell>
        <mxCell id="HD9Zg6J0hAq_qelVRoTC-136" style="edgeStyle=none;rounded=0;orthogonalLoop=1;jettySize=auto;html=1;" parent="1" source="HD9Zg6J0hAq_qelVRoTC-137" target="HD9Zg6J0hAq_qelVRoTC-133" edge="1">
          <mxGeometry relative="1" as="geometry" />
        </mxCell>
        <mxCell id="HD9Zg6J0hAq_qelVRoTC-137" value="mv id" style="ellipse;whiteSpace=wrap;html=1;align=center;fontStyle=4;" parent="1" vertex="1">
          <mxGeometry x="-671" y="1085" width="100" height="40" as="geometry" />
        </mxCell>
        <mxCell id="IBQwi4AjMWrCEyMd1zAB-19" style="edgeStyle=none;rounded=0;orthogonalLoop=1;jettySize=auto;html=1;" parent="1" source="HD9Zg6J0hAq_qelVRoTC-139" target="HD9Zg6J0hAq_qelVRoTC-133" edge="1">
          <mxGeometry relative="1" as="geometry" />
        </mxCell>
        <mxCell id="HD9Zg6J0hAq_qelVRoTC-139" value="crado_por" style="ellipse;whiteSpace=wrap;html=1;align=center;" parent="1" vertex="1">
          <mxGeometry x="-330" y="952.5" width="100" height="40" as="geometry" />
        </mxCell>
        <mxCell id="HD9Zg6J0hAq_qelVRoTC-140" style="edgeStyle=none;rounded=0;orthogonalLoop=1;jettySize=auto;html=1;" parent="1" source="HD9Zg6J0hAq_qelVRoTC-141" target="HD9Zg6J0hAq_qelVRoTC-133" edge="1">
          <mxGeometry relative="1" as="geometry" />
        </mxCell>
        <mxCell id="HD9Zg6J0hAq_qelVRoTC-141" value="referencia" style="ellipse;whiteSpace=wrap;html=1;align=center;fontStyle=0;" parent="1" vertex="1">
          <mxGeometry x="-671" y="920" width="100" height="40" as="geometry" />
        </mxCell>
        <mxCell id="HD9Zg6J0hAq_qelVRoTC-142" style="edgeStyle=none;rounded=0;orthogonalLoop=1;jettySize=auto;html=1;" parent="1" source="HD9Zg6J0hAq_qelVRoTC-143" target="HD9Zg6J0hAq_qelVRoTC-133" edge="1">
          <mxGeometry relative="1" as="geometry" />
        </mxCell>
        <mxCell id="HD9Zg6J0hAq_qelVRoTC-143" value="cantidad" style="ellipse;whiteSpace=wrap;html=1;align=center;" parent="1" vertex="1">
          <mxGeometry x="-552" y="912.5" width="100" height="40" as="geometry" />
        </mxCell>
        <mxCell id="HD9Zg6J0hAq_qelVRoTC-148" value="id_repuesto" style="ellipse;whiteSpace=wrap;html=1;align=center;" parent="1" vertex="1">
          <mxGeometry x="-690" y="1040" width="100" height="40" as="geometry" />
        </mxCell>
        <mxCell id="HD9Zg6J0hAq_qelVRoTC-149" style="edgeStyle=none;rounded=0;orthogonalLoop=1;jettySize=auto;html=1;" parent="1" source="HD9Zg6J0hAq_qelVRoTC-150" target="HD9Zg6J0hAq_qelVRoTC-133" edge="1">
          <mxGeometry relative="1" as="geometry" />
        </mxCell>
        <mxCell id="HD9Zg6J0hAq_qelVRoTC-150" value="fecha_creado" style="ellipse;whiteSpace=wrap;html=1;align=center;" parent="1" vertex="1">
          <mxGeometry x="-423" y="912.5" width="100" height="40" as="geometry" />
        </mxCell>
        <mxCell id="c_QSOdAd1hn4ASY3aFln-2" style="edgeStyle=none;rounded=0;orthogonalLoop=1;jettySize=auto;html=1;" edge="1" parent="1" source="HD9Zg6J0hAq_qelVRoTC-153" target="HD9Zg6J0hAq_qelVRoTC-135">
          <mxGeometry relative="1" as="geometry" />
        </mxCell>
        <mxCell id="HD9Zg6J0hAq_qelVRoTC-153" value="entradas,&lt;div&gt;&amp;nbsp;salidas,&lt;/div&gt;&lt;div&gt;&amp;nbsp;ajustes&lt;/div&gt;" style="text;html=1;align=center;verticalAlign=middle;resizable=0;points=[];autosize=1;strokeColor=none;fillColor=none;" parent="1" vertex="1">
          <mxGeometry x="-775" y="875" width="70" height="60" as="geometry" />
        </mxCell>
        <mxCell id="c_QSOdAd1hn4ASY3aFln-54" style="edgeStyle=none;rounded=0;orthogonalLoop=1;jettySize=auto;html=1;" edge="1" parent="1" source="HD9Zg6J0hAq_qelVRoTC-154" target="HD9Zg6J0hAq_qelVRoTC-139">
          <mxGeometry relative="1" as="geometry" />
        </mxCell>
        <mxCell id="HD9Zg6J0hAq_qelVRoTC-154" value="id usuario" style="text;html=1;align=center;verticalAlign=middle;resizable=0;points=[];autosize=1;strokeColor=none;fillColor=none;" parent="1" vertex="1">
          <mxGeometry x="-290" y="905" width="80" height="30" as="geometry" />
        </mxCell>
        <mxCell id="HD9Zg6J0hAq_qelVRoTC-206" style="edgeStyle=none;rounded=0;orthogonalLoop=1;jettySize=auto;html=1;" parent="1" source="HD9Zg6J0hAq_qelVRoTC-160" target="HD9Zg6J0hAq_qelVRoTC-205" edge="1">
          <mxGeometry relative="1" as="geometry" />
        </mxCell>
        <mxCell id="HD9Zg6J0hAq_qelVRoTC-210" value="1" style="edgeLabel;html=1;align=center;verticalAlign=middle;resizable=0;points=[];" parent="HD9Zg6J0hAq_qelVRoTC-206" vertex="1" connectable="0">
          <mxGeometry x="0.6083" relative="1" as="geometry">
            <mxPoint as="offset" />
          </mxGeometry>
        </mxCell>
        <mxCell id="HD9Zg6J0hAq_qelVRoTC-313" style="edgeStyle=none;rounded=0;orthogonalLoop=1;jettySize=auto;html=1;" parent="1" source="HD9Zg6J0hAq_qelVRoTC-160" target="HD9Zg6J0hAq_qelVRoTC-283" edge="1">
          <mxGeometry relative="1" as="geometry" />
        </mxCell>
        <mxCell id="IABFnMavRm2eJxevLNEV-20" style="edgeStyle=none;rounded=0;orthogonalLoop=1;jettySize=auto;html=1;" parent="1" source="HD9Zg6J0hAq_qelVRoTC-160" target="IABFnMavRm2eJxevLNEV-3" edge="1">
          <mxGeometry relative="1" as="geometry">
            <mxPoint x="1022.6107169072666" y="2016.3053584536337" as="targetPoint" />
            <Array as="points">
              <mxPoint x="860" y="2200" />
            </Array>
          </mxGeometry>
        </mxCell>
        <mxCell id="IABFnMavRm2eJxevLNEV-21" value="N" style="edgeLabel;html=1;align=center;verticalAlign=middle;resizable=0;points=[];" parent="IABFnMavRm2eJxevLNEV-20" vertex="1" connectable="0">
          <mxGeometry x="0.9214" y="1" relative="1" as="geometry">
            <mxPoint as="offset" />
          </mxGeometry>
        </mxCell>
        <mxCell id="IBQwi4AjMWrCEyMd1zAB-14" style="edgeStyle=none;rounded=0;orthogonalLoop=1;jettySize=auto;html=1;" parent="1" source="HD9Zg6J0hAq_qelVRoTC-160" target="IBQwi4AjMWrCEyMd1zAB-2" edge="1">
          <mxGeometry relative="1" as="geometry" />
        </mxCell>
        <mxCell id="IBQwi4AjMWrCEyMd1zAB-16" value="N" style="edgeLabel;html=1;align=center;verticalAlign=middle;resizable=0;points=[];" parent="IBQwi4AjMWrCEyMd1zAB-14" vertex="1" connectable="0">
          <mxGeometry x="0.8448" relative="1" as="geometry">
            <mxPoint as="offset" />
          </mxGeometry>
        </mxCell>
        <mxCell id="c_QSOdAd1hn4ASY3aFln-16" style="edgeStyle=orthogonalEdgeStyle;rounded=0;orthogonalLoop=1;jettySize=auto;html=1;" edge="1" parent="1" source="HD9Zg6J0hAq_qelVRoTC-160" target="c_QSOdAd1hn4ASY3aFln-15">
          <mxGeometry relative="1" as="geometry">
            <Array as="points">
              <mxPoint x="1460" y="1330" />
            </Array>
          </mxGeometry>
        </mxCell>
        <mxCell id="c_QSOdAd1hn4ASY3aFln-26" value="1" style="edgeLabel;html=1;align=center;verticalAlign=middle;resizable=0;points=[];" vertex="1" connectable="0" parent="c_QSOdAd1hn4ASY3aFln-16">
          <mxGeometry x="0.9131" y="-3" relative="1" as="geometry">
            <mxPoint y="-1" as="offset" />
          </mxGeometry>
        </mxCell>
        <mxCell id="HD9Zg6J0hAq_qelVRoTC-160" value="trabajos" style="shape=associativeEntity;whiteSpace=wrap;html=1;align=center;" parent="1" vertex="1">
          <mxGeometry x="1379" y="1204" width="121" height="58" as="geometry" />
        </mxCell>
        <mxCell id="HD9Zg6J0hAq_qelVRoTC-163" style="edgeStyle=none;rounded=0;orthogonalLoop=1;jettySize=auto;html=1;" parent="1" source="HD9Zg6J0hAq_qelVRoTC-164" target="HD9Zg6J0hAq_qelVRoTC-160" edge="1">
          <mxGeometry relative="1" as="geometry" />
        </mxCell>
        <mxCell id="HD9Zg6J0hAq_qelVRoTC-164" value="trabajo id" style="ellipse;whiteSpace=wrap;html=1;align=center;fontStyle=4;" parent="1" vertex="1">
          <mxGeometry x="1169" y="1115" width="100" height="40" as="geometry" />
        </mxCell>
        <mxCell id="HD9Zg6J0hAq_qelVRoTC-198" style="edgeStyle=none;rounded=0;orthogonalLoop=1;jettySize=auto;html=1;" parent="1" source="HD9Zg6J0hAq_qelVRoTC-166" target="HD9Zg6J0hAq_qelVRoTC-160" edge="1">
          <mxGeometry relative="1" as="geometry" />
        </mxCell>
        <mxCell id="HD9Zg6J0hAq_qelVRoTC-166" value="fecha_inicio" style="ellipse;whiteSpace=wrap;html=1;align=center;" parent="1" vertex="1">
          <mxGeometry x="1210" y="950" width="100" height="40" as="geometry" />
        </mxCell>
        <mxCell id="HD9Zg6J0hAq_qelVRoTC-167" style="edgeStyle=none;rounded=0;orthogonalLoop=1;jettySize=auto;html=1;" parent="1" source="HD9Zg6J0hAq_qelVRoTC-168" target="HD9Zg6J0hAq_qelVRoTC-160" edge="1">
          <mxGeometry relative="1" as="geometry" />
        </mxCell>
        <mxCell id="HD9Zg6J0hAq_qelVRoTC-168" value="vehiculo_id" style="ellipse;whiteSpace=wrap;html=1;align=center;fontStyle=0;" parent="1" vertex="1">
          <mxGeometry x="1179" y="1000" width="100" height="40" as="geometry" />
        </mxCell>
        <mxCell id="HD9Zg6J0hAq_qelVRoTC-169" style="edgeStyle=none;rounded=0;orthogonalLoop=1;jettySize=auto;html=1;" parent="1" source="HD9Zg6J0hAq_qelVRoTC-170" target="HD9Zg6J0hAq_qelVRoTC-160" edge="1">
          <mxGeometry relative="1" as="geometry" />
        </mxCell>
        <mxCell id="HD9Zg6J0hAq_qelVRoTC-170" value="fecha_finalizacion" style="ellipse;whiteSpace=wrap;html=1;align=center;" parent="1" vertex="1">
          <mxGeometry x="1290" y="910" width="100" height="40" as="geometry" />
        </mxCell>
        <mxCell id="HD9Zg6J0hAq_qelVRoTC-189" style="edgeStyle=none;rounded=0;orthogonalLoop=1;jettySize=auto;html=1;" parent="1" source="HD9Zg6J0hAq_qelVRoTC-172" target="HD9Zg6J0hAq_qelVRoTC-160" edge="1">
          <mxGeometry relative="1" as="geometry" />
        </mxCell>
        <mxCell id="HD9Zg6J0hAq_qelVRoTC-172" value="tipo" style="ellipse;whiteSpace=wrap;html=1;align=center;" parent="1" vertex="1">
          <mxGeometry x="1400" y="900" width="100" height="40" as="geometry" />
        </mxCell>
        <mxCell id="HD9Zg6J0hAq_qelVRoTC-173" style="edgeStyle=none;rounded=0;orthogonalLoop=1;jettySize=auto;html=1;" parent="1" source="HD9Zg6J0hAq_qelVRoTC-174" target="HD9Zg6J0hAq_qelVRoTC-160" edge="1">
          <mxGeometry relative="1" as="geometry" />
        </mxCell>
        <mxCell id="HD9Zg6J0hAq_qelVRoTC-174" value="estado" style="ellipse;whiteSpace=wrap;html=1;align=center;" parent="1" vertex="1">
          <mxGeometry x="1517" y="920" width="100" height="40" as="geometry" />
        </mxCell>
        <mxCell id="HD9Zg6J0hAq_qelVRoTC-175" style="edgeStyle=none;rounded=0;orthogonalLoop=1;jettySize=auto;html=1;" parent="1" source="HD9Zg6J0hAq_qelVRoTC-176" target="HD9Zg6J0hAq_qelVRoTC-160" edge="1">
          <mxGeometry relative="1" as="geometry" />
        </mxCell>
        <mxCell id="HD9Zg6J0hAq_qelVRoTC-176" value="usuario_id" style="ellipse;whiteSpace=wrap;html=1;align=center;" parent="1" vertex="1">
          <mxGeometry x="1151" y="1060" width="100" height="40" as="geometry" />
        </mxCell>
        <mxCell id="HD9Zg6J0hAq_qelVRoTC-182" value="correctivo, preventivo" style="text;html=1;align=center;verticalAlign=middle;resizable=0;points=[];autosize=1;strokeColor=none;fillColor=none;" parent="1" vertex="1">
          <mxGeometry x="1387" y="860" width="140" height="30" as="geometry" />
        </mxCell>
        <mxCell id="HD9Zg6J0hAq_qelVRoTC-183" value="pendiente, finalizado, en ejecucion etc" style="text;html=1;align=center;verticalAlign=middle;resizable=0;points=[];autosize=1;strokeColor=none;fillColor=none;" parent="1" vertex="1">
          <mxGeometry x="1507" y="880" width="230" height="30" as="geometry" />
        </mxCell>
        <mxCell id="HD9Zg6J0hAq_qelVRoTC-188" style="edgeStyle=none;rounded=0;orthogonalLoop=1;jettySize=auto;html=1;" parent="1" source="HD9Zg6J0hAq_qelVRoTC-184" target="HD9Zg6J0hAq_qelVRoTC-160" edge="1">
          <mxGeometry relative="1" as="geometry" />
        </mxCell>
        <mxCell id="HD9Zg6J0hAq_qelVRoTC-184" value="descripcion" style="ellipse;whiteSpace=wrap;html=1;align=center;" parent="1" vertex="1">
          <mxGeometry x="1600" y="970" width="100" height="40" as="geometry" />
        </mxCell>
        <mxCell id="HD9Zg6J0hAq_qelVRoTC-190" style="edgeStyle=none;rounded=0;orthogonalLoop=1;jettySize=auto;html=1;" parent="1" source="HD9Zg6J0hAq_qelVRoTC-185" target="HD9Zg6J0hAq_qelVRoTC-160" edge="1">
          <mxGeometry relative="1" as="geometry" />
        </mxCell>
        <mxCell id="HD9Zg6J0hAq_qelVRoTC-185" value="horas_estimadas" style="ellipse;whiteSpace=wrap;html=1;align=center;" parent="1" vertex="1">
          <mxGeometry x="1627" y="1030" width="100" height="40" as="geometry" />
        </mxCell>
        <mxCell id="HD9Zg6J0hAq_qelVRoTC-186" value="fecha_creado" style="ellipse;whiteSpace=wrap;html=1;align=center;" parent="1" vertex="1">
          <mxGeometry x="1637" y="1080" width="100" height="40" as="geometry" />
        </mxCell>
        <mxCell id="HD9Zg6J0hAq_qelVRoTC-191" style="edgeStyle=none;rounded=0;orthogonalLoop=1;jettySize=auto;html=1;" parent="1" source="HD9Zg6J0hAq_qelVRoTC-187" target="HD9Zg6J0hAq_qelVRoTC-160" edge="1">
          <mxGeometry relative="1" as="geometry" />
        </mxCell>
        <mxCell id="HD9Zg6J0hAq_qelVRoTC-187" value="fecha_actualizacion" style="ellipse;whiteSpace=wrap;html=1;align=center;" parent="1" vertex="1">
          <mxGeometry x="1627" y="1130" width="100" height="40" as="geometry" />
        </mxCell>
        <mxCell id="HD9Zg6J0hAq_qelVRoTC-209" style="edgeStyle=none;rounded=0;orthogonalLoop=1;jettySize=auto;html=1;entryX=0.5;entryY=0;entryDx=0;entryDy=0;" parent="1" source="HD9Zg6J0hAq_qelVRoTC-205" target="HD9Zg6J0hAq_qelVRoTC-208" edge="1">
          <mxGeometry relative="1" as="geometry" />
        </mxCell>
        <mxCell id="HD9Zg6J0hAq_qelVRoTC-211" value="N" style="edgeLabel;html=1;align=center;verticalAlign=middle;resizable=0;points=[];" parent="HD9Zg6J0hAq_qelVRoTC-209" vertex="1" connectable="0">
          <mxGeometry x="-0.6" relative="1" as="geometry">
            <mxPoint as="offset" />
          </mxGeometry>
        </mxCell>
        <mxCell id="HD9Zg6J0hAq_qelVRoTC-276" style="edgeStyle=none;rounded=0;orthogonalLoop=1;jettySize=auto;html=1;" parent="1" source="HD9Zg6J0hAq_qelVRoTC-205" target="HD9Zg6J0hAq_qelVRoTC-257" edge="1">
          <mxGeometry relative="1" as="geometry" />
        </mxCell>
        <mxCell id="HD9Zg6J0hAq_qelVRoTC-277" value="N" style="edgeLabel;html=1;align=center;verticalAlign=middle;resizable=0;points=[];" parent="HD9Zg6J0hAq_qelVRoTC-276" vertex="1" connectable="0">
          <mxGeometry x="-0.8736" y="-2" relative="1" as="geometry">
            <mxPoint y="-1" as="offset" />
          </mxGeometry>
        </mxCell>
        <mxCell id="HD9Zg6J0hAq_qelVRoTC-205" value="tiene" style="shape=rhombus;perimeter=rhombusPerimeter;whiteSpace=wrap;html=1;align=center;" parent="1" vertex="1">
          <mxGeometry x="1379" y="1400" width="120" height="60" as="geometry" />
        </mxCell>
        <mxCell id="HD9Zg6J0hAq_qelVRoTC-208" value="asignaciones_trabajo" style="whiteSpace=wrap;html=1;align=center;" parent="1" vertex="1">
          <mxGeometry x="1377.5" y="1620" width="123" height="40" as="geometry" />
        </mxCell>
        <mxCell id="HD9Zg6J0hAq_qelVRoTC-213" style="edgeStyle=none;rounded=0;orthogonalLoop=1;jettySize=auto;html=1;" parent="1" source="HD9Zg6J0hAq_qelVRoTC-212" target="HD9Zg6J0hAq_qelVRoTC-208" edge="1">
          <mxGeometry relative="1" as="geometry" />
        </mxCell>
        <mxCell id="HD9Zg6J0hAq_qelVRoTC-216" value="N" style="edgeLabel;html=1;align=center;verticalAlign=middle;resizable=0;points=[];" parent="HD9Zg6J0hAq_qelVRoTC-213" vertex="1" connectable="0">
          <mxGeometry x="-0.663" y="-1" relative="1" as="geometry">
            <mxPoint as="offset" />
          </mxGeometry>
        </mxCell>
        <mxCell id="HD9Zg6J0hAq_qelVRoTC-212" value="tiene" style="shape=rhombus;perimeter=rhombusPerimeter;whiteSpace=wrap;html=1;align=center;" parent="1" vertex="1">
          <mxGeometry x="990" y="1610" width="120" height="60" as="geometry" />
        </mxCell>
        <mxCell id="HD9Zg6J0hAq_qelVRoTC-221" style="edgeStyle=none;rounded=0;orthogonalLoop=1;jettySize=auto;html=1;" parent="1" source="HD9Zg6J0hAq_qelVRoTC-217" target="HD9Zg6J0hAq_qelVRoTC-208" edge="1">
          <mxGeometry relative="1" as="geometry" />
        </mxCell>
        <mxCell id="HD9Zg6J0hAq_qelVRoTC-217" value="asignacion id" style="ellipse;whiteSpace=wrap;html=1;align=center;fontStyle=4;" parent="1" vertex="1">
          <mxGeometry x="1241" y="1734" width="100" height="40" as="geometry" />
        </mxCell>
        <mxCell id="HD9Zg6J0hAq_qelVRoTC-222" style="edgeStyle=none;rounded=0;orthogonalLoop=1;jettySize=auto;html=1;" parent="1" source="HD9Zg6J0hAq_qelVRoTC-218" target="HD9Zg6J0hAq_qelVRoTC-208" edge="1">
          <mxGeometry relative="1" as="geometry" />
        </mxCell>
        <mxCell id="HD9Zg6J0hAq_qelVRoTC-218" value="usuario_id" style="ellipse;whiteSpace=wrap;html=1;align=center;" parent="1" vertex="1">
          <mxGeometry x="1302" y="1790" width="100" height="40" as="geometry" />
        </mxCell>
        <mxCell id="HD9Zg6J0hAq_qelVRoTC-223" style="edgeStyle=none;rounded=0;orthogonalLoop=1;jettySize=auto;html=1;" parent="1" source="HD9Zg6J0hAq_qelVRoTC-219" target="HD9Zg6J0hAq_qelVRoTC-208" edge="1">
          <mxGeometry relative="1" as="geometry" />
        </mxCell>
        <mxCell id="HD9Zg6J0hAq_qelVRoTC-219" value="trabajo_id" style="ellipse;whiteSpace=wrap;html=1;align=center;" parent="1" vertex="1">
          <mxGeometry x="1411" y="1790" width="100" height="40" as="geometry" />
        </mxCell>
        <mxCell id="HD9Zg6J0hAq_qelVRoTC-225" style="edgeStyle=none;rounded=0;orthogonalLoop=1;jettySize=auto;html=1;" parent="1" source="HD9Zg6J0hAq_qelVRoTC-224" target="HD9Zg6J0hAq_qelVRoTC-208" edge="1">
          <mxGeometry relative="1" as="geometry" />
        </mxCell>
        <mxCell id="HD9Zg6J0hAq_qelVRoTC-224" value="rol_asignado" style="ellipse;whiteSpace=wrap;html=1;align=center;" parent="1" vertex="1">
          <mxGeometry x="1511" y="1754" width="100" height="40" as="geometry" />
        </mxCell>
        <mxCell id="HD9Zg6J0hAq_qelVRoTC-237" style="edgeStyle=none;rounded=0;orthogonalLoop=1;jettySize=auto;html=1;" parent="1" source="HD9Zg6J0hAq_qelVRoTC-226" target="HD9Zg6J0hAq_qelVRoTC-224" edge="1">
          <mxGeometry relative="1" as="geometry" />
        </mxCell>
        <mxCell id="HD9Zg6J0hAq_qelVRoTC-226" value="especialista/empleado" style="text;html=1;align=center;verticalAlign=middle;resizable=0;points=[];autosize=1;strokeColor=none;fillColor=none;" parent="1" vertex="1">
          <mxGeometry x="1501" y="1820" width="140" height="30" as="geometry" />
        </mxCell>
        <mxCell id="HD9Zg6J0hAq_qelVRoTC-231" style="edgeStyle=none;rounded=0;orthogonalLoop=1;jettySize=auto;html=1;" parent="1" source="HD9Zg6J0hAq_qelVRoTC-228" target="HD9Zg6J0hAq_qelVRoTC-208" edge="1">
          <mxGeometry relative="1" as="geometry" />
        </mxCell>
        <mxCell id="HD9Zg6J0hAq_qelVRoTC-228" value="fecha_asignado" style="ellipse;whiteSpace=wrap;html=1;align=center;" parent="1" vertex="1">
          <mxGeometry x="1590" y="1610" width="100" height="40" as="geometry" />
        </mxCell>
        <mxCell id="HD9Zg6J0hAq_qelVRoTC-230" style="edgeStyle=none;rounded=0;orthogonalLoop=1;jettySize=auto;html=1;" parent="1" source="HD9Zg6J0hAq_qelVRoTC-229" target="HD9Zg6J0hAq_qelVRoTC-208" edge="1">
          <mxGeometry relative="1" as="geometry" />
        </mxCell>
        <mxCell id="HD9Zg6J0hAq_qelVRoTC-229" value="fecha_retirado" style="ellipse;whiteSpace=wrap;html=1;align=center;" parent="1" vertex="1">
          <mxGeometry x="1611" y="1670" width="100" height="40" as="geometry" />
        </mxCell>
        <mxCell id="HD9Zg6J0hAq_qelVRoTC-233" style="edgeStyle=none;rounded=0;orthogonalLoop=1;jettySize=auto;html=1;" parent="1" source="HD9Zg6J0hAq_qelVRoTC-232" target="HD9Zg6J0hAq_qelVRoTC-208" edge="1">
          <mxGeometry relative="1" as="geometry" />
        </mxCell>
        <mxCell id="HD9Zg6J0hAq_qelVRoTC-232" value="anotaciones" style="ellipse;whiteSpace=wrap;html=1;align=center;" parent="1" vertex="1">
          <mxGeometry x="1598" y="1720" width="100" height="40" as="geometry" />
        </mxCell>
        <mxCell id="HD9Zg6J0hAq_qelVRoTC-235" value="" style="edgeStyle=none;rounded=0;orthogonalLoop=1;jettySize=auto;html=1;" parent="1" source="HD9Zg6J0hAq_qelVRoTC-234" target="HD9Zg6J0hAq_qelVRoTC-232" edge="1">
          <mxGeometry relative="1" as="geometry" />
        </mxCell>
        <mxCell id="HD9Zg6J0hAq_qelVRoTC-234" value="algún comentario en particular" style="text;html=1;align=center;verticalAlign=middle;resizable=0;points=[];autosize=1;strokeColor=none;fillColor=none;" parent="1" vertex="1">
          <mxGeometry x="1727" y="1725" width="180" height="30" as="geometry" />
        </mxCell>
        <mxCell id="HD9Zg6J0hAq_qelVRoTC-257" value="actualizaciones_trabajo" style="whiteSpace=wrap;html=1;align=center;" parent="1" vertex="1">
          <mxGeometry x="1929" y="1410" width="138.5" height="40" as="geometry" />
        </mxCell>
        <mxCell id="HD9Zg6J0hAq_qelVRoTC-258" style="edgeStyle=none;rounded=0;orthogonalLoop=1;jettySize=auto;html=1;" parent="1" source="HD9Zg6J0hAq_qelVRoTC-259" target="HD9Zg6J0hAq_qelVRoTC-257" edge="1">
          <mxGeometry relative="1" as="geometry" />
        </mxCell>
        <mxCell id="HD9Zg6J0hAq_qelVRoTC-259" value="asignacion id" style="ellipse;whiteSpace=wrap;html=1;align=center;fontStyle=4;" parent="1" vertex="1">
          <mxGeometry x="1815" y="1504" width="100" height="40" as="geometry" />
        </mxCell>
        <mxCell id="HD9Zg6J0hAq_qelVRoTC-260" style="edgeStyle=none;rounded=0;orthogonalLoop=1;jettySize=auto;html=1;" parent="1" source="HD9Zg6J0hAq_qelVRoTC-261" target="HD9Zg6J0hAq_qelVRoTC-257" edge="1">
          <mxGeometry relative="1" as="geometry" />
        </mxCell>
        <mxCell id="HD9Zg6J0hAq_qelVRoTC-261" value="usuario_id" style="ellipse;whiteSpace=wrap;html=1;align=center;" parent="1" vertex="1">
          <mxGeometry x="1876" y="1560" width="100" height="40" as="geometry" />
        </mxCell>
        <mxCell id="HD9Zg6J0hAq_qelVRoTC-262" style="edgeStyle=none;rounded=0;orthogonalLoop=1;jettySize=auto;html=1;" parent="1" source="HD9Zg6J0hAq_qelVRoTC-263" target="HD9Zg6J0hAq_qelVRoTC-257" edge="1">
          <mxGeometry relative="1" as="geometry" />
        </mxCell>
        <mxCell id="HD9Zg6J0hAq_qelVRoTC-263" value="trabajo_id" style="ellipse;whiteSpace=wrap;html=1;align=center;" parent="1" vertex="1">
          <mxGeometry x="1985" y="1560" width="100" height="40" as="geometry" />
        </mxCell>
        <mxCell id="HD9Zg6J0hAq_qelVRoTC-264" style="edgeStyle=none;rounded=0;orthogonalLoop=1;jettySize=auto;html=1;" parent="1" source="HD9Zg6J0hAq_qelVRoTC-265" target="HD9Zg6J0hAq_qelVRoTC-257" edge="1">
          <mxGeometry relative="1" as="geometry" />
        </mxCell>
        <mxCell id="HD9Zg6J0hAq_qelVRoTC-265" value="tipo_actualizacion" style="ellipse;whiteSpace=wrap;html=1;align=center;" parent="1" vertex="1">
          <mxGeometry x="2085" y="1524" width="100" height="40" as="geometry" />
        </mxCell>
        <mxCell id="HD9Zg6J0hAq_qelVRoTC-266" style="edgeStyle=none;rounded=0;orthogonalLoop=1;jettySize=auto;html=1;" parent="1" source="HD9Zg6J0hAq_qelVRoTC-267" target="HD9Zg6J0hAq_qelVRoTC-265" edge="1">
          <mxGeometry relative="1" as="geometry" />
        </mxCell>
        <mxCell id="HD9Zg6J0hAq_qelVRoTC-267" value="nota, inicio, finalizado, en pausa etc" style="text;html=1;align=center;verticalAlign=middle;resizable=0;points=[];autosize=1;strokeColor=none;fillColor=none;" parent="1" vertex="1">
          <mxGeometry x="2140" y="1630" width="210" height="30" as="geometry" />
        </mxCell>
        <mxCell id="HD9Zg6J0hAq_qelVRoTC-268" style="edgeStyle=none;rounded=0;orthogonalLoop=1;jettySize=auto;html=1;" parent="1" source="HD9Zg6J0hAq_qelVRoTC-269" target="HD9Zg6J0hAq_qelVRoTC-257" edge="1">
          <mxGeometry relative="1" as="geometry" />
        </mxCell>
        <mxCell id="HD9Zg6J0hAq_qelVRoTC-269" value="fecha_creado" style="ellipse;whiteSpace=wrap;html=1;align=center;" parent="1" vertex="1">
          <mxGeometry x="2164" y="1380" width="100" height="40" as="geometry" />
        </mxCell>
        <mxCell id="HD9Zg6J0hAq_qelVRoTC-270" style="edgeStyle=none;rounded=0;orthogonalLoop=1;jettySize=auto;html=1;" parent="1" source="HD9Zg6J0hAq_qelVRoTC-271" target="HD9Zg6J0hAq_qelVRoTC-257" edge="1">
          <mxGeometry relative="1" as="geometry" />
        </mxCell>
        <mxCell id="HD9Zg6J0hAq_qelVRoTC-271" value="horas_invertidas" style="ellipse;whiteSpace=wrap;html=1;align=center;" parent="1" vertex="1">
          <mxGeometry x="2185" y="1440" width="100" height="40" as="geometry" />
        </mxCell>
        <mxCell id="HD9Zg6J0hAq_qelVRoTC-272" style="edgeStyle=none;rounded=0;orthogonalLoop=1;jettySize=auto;html=1;" parent="1" source="HD9Zg6J0hAq_qelVRoTC-273" target="HD9Zg6J0hAq_qelVRoTC-257" edge="1">
          <mxGeometry relative="1" as="geometry" />
        </mxCell>
        <mxCell id="HD9Zg6J0hAq_qelVRoTC-273" value="anotaciones" style="ellipse;whiteSpace=wrap;html=1;align=center;" parent="1" vertex="1">
          <mxGeometry x="2172" y="1490" width="100" height="40" as="geometry" />
        </mxCell>
        <mxCell id="HD9Zg6J0hAq_qelVRoTC-274" value="" style="edgeStyle=none;rounded=0;orthogonalLoop=1;jettySize=auto;html=1;" parent="1" source="HD9Zg6J0hAq_qelVRoTC-275" target="HD9Zg6J0hAq_qelVRoTC-273" edge="1">
          <mxGeometry relative="1" as="geometry" />
        </mxCell>
        <mxCell id="HD9Zg6J0hAq_qelVRoTC-275" value="algún comentario en particular" style="text;html=1;align=center;verticalAlign=middle;resizable=0;points=[];autosize=1;strokeColor=none;fillColor=none;" parent="1" vertex="1">
          <mxGeometry x="2301" y="1495" width="180" height="30" as="geometry" />
        </mxCell>
        <mxCell id="HD9Zg6J0hAq_qelVRoTC-279" style="edgeStyle=none;rounded=0;orthogonalLoop=1;jettySize=auto;html=1;" parent="1" source="HD9Zg6J0hAq_qelVRoTC-278" target="HD9Zg6J0hAq_qelVRoTC-257" edge="1">
          <mxGeometry relative="1" as="geometry" />
        </mxCell>
        <mxCell id="HD9Zg6J0hAq_qelVRoTC-282" value="N" style="edgeLabel;html=1;align=center;verticalAlign=middle;resizable=0;points=[];" parent="HD9Zg6J0hAq_qelVRoTC-279" vertex="1" connectable="0">
          <mxGeometry x="-0.9153" y="-2" relative="1" as="geometry">
            <mxPoint y="1" as="offset" />
          </mxGeometry>
        </mxCell>
        <mxCell id="HD9Zg6J0hAq_qelVRoTC-278" value="realiza" style="shape=rhombus;perimeter=rhombusPerimeter;whiteSpace=wrap;html=1;align=center;" parent="1" vertex="1">
          <mxGeometry x="1000" y="1470" width="120" height="60" as="geometry" />
        </mxCell>
        <mxCell id="HD9Zg6J0hAq_qelVRoTC-283" value="trabajo_repuestos" style="shape=associativeEntity;whiteSpace=wrap;html=1;align=center;" parent="1" vertex="1">
          <mxGeometry x="139" y="1670" width="131" height="60" as="geometry" />
        </mxCell>
        <mxCell id="HD9Zg6J0hAq_qelVRoTC-284" style="edgeStyle=none;rounded=0;orthogonalLoop=1;jettySize=auto;html=1;" parent="1" source="HD9Zg6J0hAq_qelVRoTC-285" target="HD9Zg6J0hAq_qelVRoTC-283" edge="1">
          <mxGeometry relative="1" as="geometry" />
        </mxCell>
        <mxCell id="HD9Zg6J0hAq_qelVRoTC-285" value="trabajo_id" style="ellipse;whiteSpace=wrap;html=1;align=center;" parent="1" vertex="1">
          <mxGeometry y="1460" width="100" height="40" as="geometry" />
        </mxCell>
        <mxCell id="HD9Zg6J0hAq_qelVRoTC-286" style="edgeStyle=none;rounded=0;orthogonalLoop=1;jettySize=auto;html=1;" parent="1" source="HD9Zg6J0hAq_qelVRoTC-287" target="HD9Zg6J0hAq_qelVRoTC-283" edge="1">
          <mxGeometry relative="1" as="geometry" />
        </mxCell>
        <mxCell id="HD9Zg6J0hAq_qelVRoTC-287" value="repuesto trabajo id" style="ellipse;whiteSpace=wrap;html=1;align=center;fontStyle=4;" parent="1" vertex="1">
          <mxGeometry x="-69" y="1590" width="139" height="40" as="geometry" />
        </mxCell>
        <mxCell id="HD9Zg6J0hAq_qelVRoTC-288" style="edgeStyle=none;rounded=0;orthogonalLoop=1;jettySize=auto;html=1;entryX=0.5;entryY=0;entryDx=0;entryDy=0;" parent="1" source="HD9Zg6J0hAq_qelVRoTC-289" target="HD9Zg6J0hAq_qelVRoTC-283" edge="1">
          <mxGeometry relative="1" as="geometry" />
        </mxCell>
        <mxCell id="HD9Zg6J0hAq_qelVRoTC-289" value="precio_unitario" style="ellipse;whiteSpace=wrap;html=1;align=center;" parent="1" vertex="1">
          <mxGeometry x="240" y="1450" width="100" height="40" as="geometry" />
        </mxCell>
        <mxCell id="HD9Zg6J0hAq_qelVRoTC-290" style="edgeStyle=none;rounded=0;orthogonalLoop=1;jettySize=auto;html=1;" parent="1" source="HD9Zg6J0hAq_qelVRoTC-291" target="HD9Zg6J0hAq_qelVRoTC-283" edge="1">
          <mxGeometry relative="1" as="geometry" />
        </mxCell>
        <mxCell id="HD9Zg6J0hAq_qelVRoTC-291" value="cantidad" style="ellipse;whiteSpace=wrap;html=1;align=center;fontStyle=0;" parent="1" vertex="1">
          <mxGeometry x="100" y="1430" width="100" height="40" as="geometry" />
        </mxCell>
        <mxCell id="HD9Zg6J0hAq_qelVRoTC-292" style="edgeStyle=none;rounded=0;orthogonalLoop=1;jettySize=auto;html=1;" parent="1" source="HD9Zg6J0hAq_qelVRoTC-293" target="HD9Zg6J0hAq_qelVRoTC-283" edge="1">
          <mxGeometry relative="1" as="geometry" />
        </mxCell>
        <mxCell id="HD9Zg6J0hAq_qelVRoTC-293" value="fecha_creado" style="ellipse;whiteSpace=wrap;html=1;align=center;" parent="1" vertex="1">
          <mxGeometry x="300" y="1510" width="100" height="40" as="geometry" />
        </mxCell>
        <mxCell id="HD9Zg6J0hAq_qelVRoTC-315" style="edgeStyle=none;rounded=0;orthogonalLoop=1;jettySize=auto;html=1;" parent="1" source="HD9Zg6J0hAq_qelVRoTC-298" target="HD9Zg6J0hAq_qelVRoTC-283" edge="1">
          <mxGeometry relative="1" as="geometry" />
        </mxCell>
        <mxCell id="HD9Zg6J0hAq_qelVRoTC-298" value="repuesto_id" style="ellipse;whiteSpace=wrap;html=1;align=center;" parent="1" vertex="1">
          <mxGeometry x="-60.5" y="1530" width="100" height="40" as="geometry" />
        </mxCell>
        <mxCell id="HD9Zg6J0hAq_qelVRoTC-310" value="" style="edgeStyle=none;rounded=0;orthogonalLoop=1;jettySize=auto;html=1;" parent="1" source="HD9Zg6J0hAq_qelVRoTC-309" target="HD9Zg6J0hAq_qelVRoTC-176" edge="1">
          <mxGeometry relative="1" as="geometry" />
        </mxCell>
        <mxCell id="HD9Zg6J0hAq_qelVRoTC-309" value="usuario que asignó" style="text;html=1;align=center;verticalAlign=middle;resizable=0;points=[];autosize=1;strokeColor=none;fillColor=none;" parent="1" vertex="1">
          <mxGeometry x="1000" y="1065" width="120" height="30" as="geometry" />
        </mxCell>
        <mxCell id="HD9Zg6J0hAq_qelVRoTC-312" style="edgeStyle=none;rounded=0;orthogonalLoop=1;jettySize=auto;html=1;entryX=0.5;entryY=1;entryDx=0;entryDy=0;" parent="1" source="HD9Zg6J0hAq_qelVRoTC-311" target="HD9Zg6J0hAq_qelVRoTC-218" edge="1">
          <mxGeometry relative="1" as="geometry" />
        </mxCell>
        <mxCell id="HD9Zg6J0hAq_qelVRoTC-311" value="empleado" style="text;html=1;align=center;verticalAlign=middle;resizable=0;points=[];autosize=1;strokeColor=none;fillColor=none;" parent="1" vertex="1">
          <mxGeometry x="1310" y="1870" width="80" height="30" as="geometry" />
        </mxCell>
        <mxCell id="IABFnMavRm2eJxevLNEV-32" style="edgeStyle=none;rounded=0;orthogonalLoop=1;jettySize=auto;html=1;" parent="1" source="IABFnMavRm2eJxevLNEV-3" target="IABFnMavRm2eJxevLNEV-31" edge="1">
          <mxGeometry relative="1" as="geometry" />
        </mxCell>
        <mxCell id="IABFnMavRm2eJxevLNEV-3" value="cotizaciones" style="shape=associativeEntity;whiteSpace=wrap;html=1;align=center;" parent="1" vertex="1">
          <mxGeometry x="489" y="2170" width="131" height="60" as="geometry" />
        </mxCell>
        <mxCell id="IABFnMavRm2eJxevLNEV-4" style="edgeStyle=none;rounded=0;orthogonalLoop=1;jettySize=auto;html=1;" parent="1" source="IABFnMavRm2eJxevLNEV-5" target="IABFnMavRm2eJxevLNEV-3" edge="1">
          <mxGeometry relative="1" as="geometry" />
        </mxCell>
        <mxCell id="IABFnMavRm2eJxevLNEV-5" value="cliente_id" style="ellipse;whiteSpace=wrap;html=1;align=center;" parent="1" vertex="1">
          <mxGeometry x="355" y="1980" width="100" height="40" as="geometry" />
        </mxCell>
        <mxCell id="IABFnMavRm2eJxevLNEV-6" style="edgeStyle=none;rounded=0;orthogonalLoop=1;jettySize=auto;html=1;" parent="1" source="IABFnMavRm2eJxevLNEV-7" target="IABFnMavRm2eJxevLNEV-3" edge="1">
          <mxGeometry relative="1" as="geometry" />
        </mxCell>
        <mxCell id="IABFnMavRm2eJxevLNEV-7" value="cotizacion id" style="ellipse;whiteSpace=wrap;html=1;align=center;fontStyle=4;" parent="1" vertex="1">
          <mxGeometry x="286" y="2110" width="139" height="40" as="geometry" />
        </mxCell>
        <mxCell id="IABFnMavRm2eJxevLNEV-8" style="edgeStyle=none;rounded=0;orthogonalLoop=1;jettySize=auto;html=1;entryX=0.5;entryY=0;entryDx=0;entryDy=0;" parent="1" source="IABFnMavRm2eJxevLNEV-9" target="IABFnMavRm2eJxevLNEV-3" edge="1">
          <mxGeometry relative="1" as="geometry" />
        </mxCell>
        <mxCell id="IABFnMavRm2eJxevLNEV-9" value="estado" style="ellipse;whiteSpace=wrap;html=1;align=center;" parent="1" vertex="1">
          <mxGeometry x="595" y="1970" width="100" height="40" as="geometry" />
        </mxCell>
        <mxCell id="IABFnMavRm2eJxevLNEV-10" style="edgeStyle=none;rounded=0;orthogonalLoop=1;jettySize=auto;html=1;" parent="1" source="IABFnMavRm2eJxevLNEV-11" target="IABFnMavRm2eJxevLNEV-3" edge="1">
          <mxGeometry relative="1" as="geometry" />
        </mxCell>
        <mxCell id="IABFnMavRm2eJxevLNEV-11" value="monto_total" style="ellipse;whiteSpace=wrap;html=1;align=center;fontStyle=0;" parent="1" vertex="1">
          <mxGeometry x="455" y="1950" width="100" height="40" as="geometry" />
        </mxCell>
        <mxCell id="IABFnMavRm2eJxevLNEV-12" style="edgeStyle=none;rounded=0;orthogonalLoop=1;jettySize=auto;html=1;" parent="1" source="IABFnMavRm2eJxevLNEV-13" target="IABFnMavRm2eJxevLNEV-3" edge="1">
          <mxGeometry relative="1" as="geometry" />
        </mxCell>
        <mxCell id="IABFnMavRm2eJxevLNEV-13" value="fecha_creado" style="ellipse;whiteSpace=wrap;html=1;align=center;" parent="1" vertex="1">
          <mxGeometry x="655" y="2030" width="100" height="40" as="geometry" />
        </mxCell>
        <mxCell id="IABFnMavRm2eJxevLNEV-14" style="edgeStyle=none;rounded=0;orthogonalLoop=1;jettySize=auto;html=1;" parent="1" source="IABFnMavRm2eJxevLNEV-15" target="IABFnMavRm2eJxevLNEV-3" edge="1">
          <mxGeometry relative="1" as="geometry" />
        </mxCell>
        <mxCell id="IABFnMavRm2eJxevLNEV-15" value="trabajo_id" style="ellipse;whiteSpace=wrap;html=1;align=center;" parent="1" vertex="1">
          <mxGeometry x="294.5" y="2050" width="100" height="40" as="geometry" />
        </mxCell>
        <mxCell id="IABFnMavRm2eJxevLNEV-17" style="edgeStyle=none;rounded=0;orthogonalLoop=1;jettySize=auto;html=1;" parent="1" source="IABFnMavRm2eJxevLNEV-16" target="IABFnMavRm2eJxevLNEV-3" edge="1">
          <mxGeometry relative="1" as="geometry" />
        </mxCell>
        <mxCell id="IABFnMavRm2eJxevLNEV-16" value="fecha_valida" style="ellipse;whiteSpace=wrap;html=1;align=center;" parent="1" vertex="1">
          <mxGeometry x="695" y="2080" width="100" height="40" as="geometry" />
        </mxCell>
        <mxCell id="IABFnMavRm2eJxevLNEV-30" value="detalle_cotizacion" style="whiteSpace=wrap;html=1;align=center;" parent="1" vertex="1">
          <mxGeometry x="910" y="2450" width="100" height="40" as="geometry" />
        </mxCell>
        <mxCell id="IABFnMavRm2eJxevLNEV-33" style="edgeStyle=none;rounded=0;orthogonalLoop=1;jettySize=auto;html=1;" parent="1" source="IABFnMavRm2eJxevLNEV-31" target="IABFnMavRm2eJxevLNEV-30" edge="1">
          <mxGeometry relative="1" as="geometry" />
        </mxCell>
        <mxCell id="IABFnMavRm2eJxevLNEV-31" value="tiene" style="shape=rhombus;perimeter=rhombusPerimeter;whiteSpace=wrap;html=1;align=center;" parent="1" vertex="1">
          <mxGeometry x="494.5" y="2440" width="120" height="60" as="geometry" />
        </mxCell>
        <mxCell id="IABFnMavRm2eJxevLNEV-56" style="edgeStyle=none;rounded=0;orthogonalLoop=1;jettySize=auto;html=1;" parent="1" source="IABFnMavRm2eJxevLNEV-49" target="IABFnMavRm2eJxevLNEV-30" edge="1">
          <mxGeometry relative="1" as="geometry" />
        </mxCell>
        <mxCell id="IABFnMavRm2eJxevLNEV-49" value="cotizacion_id" style="ellipse;whiteSpace=wrap;html=1;align=center;" parent="1" vertex="1">
          <mxGeometry x="785" y="2328" width="100" height="40" as="geometry" />
        </mxCell>
        <mxCell id="IABFnMavRm2eJxevLNEV-58" style="edgeStyle=none;rounded=0;orthogonalLoop=1;jettySize=auto;html=1;" parent="1" source="IABFnMavRm2eJxevLNEV-50" target="IABFnMavRm2eJxevLNEV-30" edge="1">
          <mxGeometry relative="1" as="geometry" />
        </mxCell>
        <mxCell id="IABFnMavRm2eJxevLNEV-50" value="cantidad" style="ellipse;whiteSpace=wrap;html=1;align=center;" parent="1" vertex="1">
          <mxGeometry x="1000" y="2298" width="100" height="40" as="geometry" />
        </mxCell>
        <mxCell id="IABFnMavRm2eJxevLNEV-57" style="edgeStyle=none;rounded=0;orthogonalLoop=1;jettySize=auto;html=1;" parent="1" source="IABFnMavRm2eJxevLNEV-51" target="IABFnMavRm2eJxevLNEV-30" edge="1">
          <mxGeometry relative="1" as="geometry" />
        </mxCell>
        <mxCell id="IABFnMavRm2eJxevLNEV-51" value="descripcion" style="ellipse;whiteSpace=wrap;html=1;align=center;fontStyle=0;" parent="1" vertex="1">
          <mxGeometry x="890" y="2288" width="100" height="40" as="geometry" />
        </mxCell>
        <mxCell id="IABFnMavRm2eJxevLNEV-55" style="edgeStyle=none;rounded=0;orthogonalLoop=1;jettySize=auto;html=1;" parent="1" source="IABFnMavRm2eJxevLNEV-53" target="IABFnMavRm2eJxevLNEV-30" edge="1">
          <mxGeometry relative="1" as="geometry" />
        </mxCell>
        <mxCell id="IABFnMavRm2eJxevLNEV-53" value="detalle id" style="ellipse;whiteSpace=wrap;html=1;align=center;fontStyle=4;" parent="1" vertex="1">
          <mxGeometry x="770" y="2390" width="100" height="40" as="geometry" />
        </mxCell>
        <mxCell id="IABFnMavRm2eJxevLNEV-59" style="edgeStyle=none;rounded=0;orthogonalLoop=1;jettySize=auto;html=1;" parent="1" source="IABFnMavRm2eJxevLNEV-54" target="IABFnMavRm2eJxevLNEV-30" edge="1">
          <mxGeometry relative="1" as="geometry" />
        </mxCell>
        <mxCell id="IABFnMavRm2eJxevLNEV-54" value="precio_unitario" style="ellipse;whiteSpace=wrap;html=1;align=center;" parent="1" vertex="1">
          <mxGeometry x="1069" y="2350" width="100" height="40" as="geometry" />
        </mxCell>
        <mxCell id="IBQwi4AjMWrCEyMd1zAB-2" value="trabajo_servicios" style="shape=associativeEntity;whiteSpace=wrap;html=1;align=center;" parent="1" vertex="1">
          <mxGeometry x="1964" y="1204" width="121" height="58" as="geometry" />
        </mxCell>
        <mxCell id="IBQwi4AjMWrCEyMd1zAB-9" style="edgeStyle=none;rounded=0;orthogonalLoop=1;jettySize=auto;html=1;" parent="1" source="IBQwi4AjMWrCEyMd1zAB-3" target="IBQwi4AjMWrCEyMd1zAB-2" edge="1">
          <mxGeometry relative="1" as="geometry" />
        </mxCell>
        <mxCell id="IBQwi4AjMWrCEyMd1zAB-3" value="trabajo servicio id" style="ellipse;whiteSpace=wrap;html=1;align=center;fontStyle=4;container=0;" parent="1" vertex="1">
          <mxGeometry x="1847" y="1105" width="100" height="40" as="geometry" />
        </mxCell>
        <mxCell id="IBQwi4AjMWrCEyMd1zAB-10" style="edgeStyle=none;rounded=0;orthogonalLoop=1;jettySize=auto;html=1;" parent="1" source="IBQwi4AjMWrCEyMd1zAB-5" target="IBQwi4AjMWrCEyMd1zAB-2" edge="1">
          <mxGeometry relative="1" as="geometry" />
        </mxCell>
        <mxCell id="IBQwi4AjMWrCEyMd1zAB-5" value="id_tipo_servicio" style="ellipse;whiteSpace=wrap;html=1;align=center;container=0;" parent="1" vertex="1">
          <mxGeometry x="1976" y="1000" width="100" height="40" as="geometry" />
        </mxCell>
        <mxCell id="IBQwi4AjMWrCEyMd1zAB-12" style="edgeStyle=none;rounded=0;orthogonalLoop=1;jettySize=auto;html=1;" parent="1" source="IBQwi4AjMWrCEyMd1zAB-6" target="IBQwi4AjMWrCEyMd1zAB-2" edge="1">
          <mxGeometry relative="1" as="geometry" />
        </mxCell>
        <mxCell id="IBQwi4AjMWrCEyMd1zAB-6" value="cantidad" style="ellipse;whiteSpace=wrap;html=1;align=center;container=0;" parent="1" vertex="1">
          <mxGeometry x="2085" y="1025" width="100" height="40" as="geometry" />
        </mxCell>
        <mxCell id="IBQwi4AjMWrCEyMd1zAB-13" style="edgeStyle=none;rounded=0;orthogonalLoop=1;jettySize=auto;html=1;" parent="1" source="IBQwi4AjMWrCEyMd1zAB-7" target="IBQwi4AjMWrCEyMd1zAB-2" edge="1">
          <mxGeometry relative="1" as="geometry" />
        </mxCell>
        <mxCell id="IBQwi4AjMWrCEyMd1zAB-7" value="precio_unitario" style="ellipse;whiteSpace=wrap;html=1;align=center;container=0;" parent="1" vertex="1">
          <mxGeometry x="2110" y="1075" width="100" height="40" as="geometry" />
        </mxCell>
        <mxCell id="c_QSOdAd1hn4ASY3aFln-5" style="edgeStyle=none;rounded=0;orthogonalLoop=1;jettySize=auto;html=1;" edge="1" parent="1" source="c_QSOdAd1hn4ASY3aFln-4" target="IBQwi4AjMWrCEyMd1zAB-2">
          <mxGeometry relative="1" as="geometry" />
        </mxCell>
        <mxCell id="c_QSOdAd1hn4ASY3aFln-4" value="subtotal" style="ellipse;whiteSpace=wrap;html=1;align=center;dashed=1;" vertex="1" parent="1">
          <mxGeometry x="2130" y="1130" width="100" height="40" as="geometry" />
        </mxCell>
        <mxCell id="c_QSOdAd1hn4ASY3aFln-6" value="cliente_id" style="ellipse;whiteSpace=wrap;html=1;align=center;" vertex="1" parent="1">
          <mxGeometry x="2760" y="1105" width="100" height="40" as="geometry" />
        </mxCell>
        <mxCell id="c_QSOdAd1hn4ASY3aFln-45" style="edgeStyle=none;rounded=0;orthogonalLoop=1;jettySize=auto;html=1;" edge="1" parent="1" source="c_QSOdAd1hn4ASY3aFln-7" target="c_QSOdAd1hn4ASY3aFln-28">
          <mxGeometry relative="1" as="geometry" />
        </mxCell>
        <mxCell id="c_QSOdAd1hn4ASY3aFln-46" value="1" style="edgeLabel;html=1;align=center;verticalAlign=middle;resizable=0;points=[];" vertex="1" connectable="0" parent="c_QSOdAd1hn4ASY3aFln-45">
          <mxGeometry x="0.7153" relative="1" as="geometry">
            <mxPoint as="offset" />
          </mxGeometry>
        </mxCell>
        <mxCell id="c_QSOdAd1hn4ASY3aFln-7" value="facturas" style="whiteSpace=wrap;html=1;align=center;container=0;" vertex="1" parent="1">
          <mxGeometry x="2860" y="1310" width="100" height="40" as="geometry" />
        </mxCell>
        <mxCell id="c_QSOdAd1hn4ASY3aFln-8" style="edgeStyle=none;rounded=0;orthogonalLoop=1;jettySize=auto;html=1;" edge="1" parent="1" source="c_QSOdAd1hn4ASY3aFln-9" target="c_QSOdAd1hn4ASY3aFln-7">
          <mxGeometry relative="1" as="geometry" />
        </mxCell>
        <mxCell id="c_QSOdAd1hn4ASY3aFln-9" value="trabajo_id" style="ellipse;whiteSpace=wrap;html=1;align=center;container=0;" vertex="1" parent="1">
          <mxGeometry x="2729" y="1164" width="100" height="40" as="geometry" />
        </mxCell>
        <mxCell id="c_QSOdAd1hn4ASY3aFln-10" style="edgeStyle=none;rounded=0;orthogonalLoop=1;jettySize=auto;html=1;" edge="1" parent="1" source="c_QSOdAd1hn4ASY3aFln-11" target="c_QSOdAd1hn4ASY3aFln-7">
          <mxGeometry relative="1" as="geometry" />
        </mxCell>
        <mxCell id="c_QSOdAd1hn4ASY3aFln-11" value="factura id" style="ellipse;whiteSpace=wrap;html=1;align=center;fontStyle=4;container=0;" vertex="1" parent="1">
          <mxGeometry x="2739" y="1225" width="100" height="40" as="geometry" />
        </mxCell>
        <mxCell id="c_QSOdAd1hn4ASY3aFln-12" style="edgeStyle=none;rounded=0;orthogonalLoop=1;jettySize=auto;html=1;" edge="1" parent="1" source="c_QSOdAd1hn4ASY3aFln-6" target="c_QSOdAd1hn4ASY3aFln-7">
          <mxGeometry relative="1" as="geometry" />
        </mxCell>
        <mxCell id="c_QSOdAd1hn4ASY3aFln-13" style="edgeStyle=none;rounded=0;orthogonalLoop=1;jettySize=auto;html=1;" edge="1" parent="1" source="c_QSOdAd1hn4ASY3aFln-14" target="c_QSOdAd1hn4ASY3aFln-7">
          <mxGeometry relative="1" as="geometry" />
        </mxCell>
        <mxCell id="c_QSOdAd1hn4ASY3aFln-14" value="monto_toal" style="ellipse;whiteSpace=wrap;html=1;align=center;" vertex="1" parent="1">
          <mxGeometry x="2860" y="1070" width="100" height="40" as="geometry" />
        </mxCell>
        <mxCell id="c_QSOdAd1hn4ASY3aFln-17" style="edgeStyle=none;rounded=0;orthogonalLoop=1;jettySize=auto;html=1;" edge="1" parent="1" source="c_QSOdAd1hn4ASY3aFln-15" target="c_QSOdAd1hn4ASY3aFln-7">
          <mxGeometry relative="1" as="geometry" />
        </mxCell>
        <mxCell id="c_QSOdAd1hn4ASY3aFln-27" value="1" style="edgeLabel;html=1;align=center;verticalAlign=middle;resizable=0;points=[];" vertex="1" connectable="0" parent="c_QSOdAd1hn4ASY3aFln-17">
          <mxGeometry x="-0.9034" relative="1" as="geometry">
            <mxPoint as="offset" />
          </mxGeometry>
        </mxCell>
        <mxCell id="c_QSOdAd1hn4ASY3aFln-15" value="tiene" style="shape=rhombus;perimeter=rhombusPerimeter;whiteSpace=wrap;html=1;align=center;" vertex="1" parent="1">
          <mxGeometry x="2250" y="1300" width="120" height="60" as="geometry" />
        </mxCell>
        <mxCell id="c_QSOdAd1hn4ASY3aFln-25" style="edgeStyle=none;rounded=0;orthogonalLoop=1;jettySize=auto;html=1;" edge="1" parent="1" source="c_QSOdAd1hn4ASY3aFln-18" target="c_QSOdAd1hn4ASY3aFln-7">
          <mxGeometry relative="1" as="geometry" />
        </mxCell>
        <mxCell id="c_QSOdAd1hn4ASY3aFln-18" value="estado_factura" style="ellipse;whiteSpace=wrap;html=1;align=center;" vertex="1" parent="1">
          <mxGeometry x="2980" y="1090" width="100" height="40" as="geometry" />
        </mxCell>
        <mxCell id="c_QSOdAd1hn4ASY3aFln-24" style="edgeStyle=none;rounded=0;orthogonalLoop=1;jettySize=auto;html=1;" edge="1" parent="1" source="c_QSOdAd1hn4ASY3aFln-19" target="c_QSOdAd1hn4ASY3aFln-7">
          <mxGeometry relative="1" as="geometry" />
        </mxCell>
        <mxCell id="c_QSOdAd1hn4ASY3aFln-19" value="fecha_emision" style="ellipse;whiteSpace=wrap;html=1;align=center;" vertex="1" parent="1">
          <mxGeometry x="3010" y="1145" width="100" height="40" as="geometry" />
        </mxCell>
        <mxCell id="c_QSOdAd1hn4ASY3aFln-21" style="edgeStyle=none;rounded=0;orthogonalLoop=1;jettySize=auto;html=1;" edge="1" parent="1" source="c_QSOdAd1hn4ASY3aFln-20" target="c_QSOdAd1hn4ASY3aFln-18">
          <mxGeometry relative="1" as="geometry" />
        </mxCell>
        <mxCell id="c_QSOdAd1hn4ASY3aFln-20" value="pendiente&lt;div&gt;pagada&lt;/div&gt;&lt;div&gt;anulada&lt;/div&gt;" style="text;html=1;align=center;verticalAlign=middle;resizable=0;points=[];autosize=1;strokeColor=none;fillColor=none;" vertex="1" parent="1">
          <mxGeometry x="3100" y="1075" width="80" height="60" as="geometry" />
        </mxCell>
        <mxCell id="c_QSOdAd1hn4ASY3aFln-23" style="edgeStyle=none;rounded=0;orthogonalLoop=1;jettySize=auto;html=1;" edge="1" parent="1" source="c_QSOdAd1hn4ASY3aFln-22" target="c_QSOdAd1hn4ASY3aFln-7">
          <mxGeometry relative="1" as="geometry" />
        </mxCell>
        <mxCell id="c_QSOdAd1hn4ASY3aFln-22" value="fecha_vencimiento" style="ellipse;whiteSpace=wrap;html=1;align=center;" vertex="1" parent="1">
          <mxGeometry x="3010" y="1204" width="100" height="40" as="geometry" />
        </mxCell>
        <mxCell id="c_QSOdAd1hn4ASY3aFln-28" value="tiene" style="shape=rhombus;perimeter=rhombusPerimeter;whiteSpace=wrap;html=1;align=center;" vertex="1" parent="1">
          <mxGeometry x="3200" y="1300" width="120" height="60" as="geometry" />
        </mxCell>
        <mxCell id="c_QSOdAd1hn4ASY3aFln-29" value="monto_pago" style="ellipse;whiteSpace=wrap;html=1;align=center;" vertex="1" parent="1">
          <mxGeometry x="3551" y="1105" width="100" height="40" as="geometry" />
        </mxCell>
        <mxCell id="c_QSOdAd1hn4ASY3aFln-47" style="edgeStyle=none;rounded=0;orthogonalLoop=1;jettySize=auto;html=1;" edge="1" parent="1" source="c_QSOdAd1hn4ASY3aFln-30" target="c_QSOdAd1hn4ASY3aFln-28">
          <mxGeometry relative="1" as="geometry" />
        </mxCell>
        <mxCell id="c_QSOdAd1hn4ASY3aFln-53" value="N" style="edgeLabel;html=1;align=center;verticalAlign=middle;resizable=0;points=[];" vertex="1" connectable="0" parent="c_QSOdAd1hn4ASY3aFln-47">
          <mxGeometry x="0.7809" y="-1" relative="1" as="geometry">
            <mxPoint y="1" as="offset" />
          </mxGeometry>
        </mxCell>
        <mxCell id="c_QSOdAd1hn4ASY3aFln-30" value="pago_factura" style="whiteSpace=wrap;html=1;align=center;container=0;" vertex="1" parent="1">
          <mxGeometry x="3651" y="1310" width="100" height="40" as="geometry" />
        </mxCell>
        <mxCell id="c_QSOdAd1hn4ASY3aFln-31" style="edgeStyle=none;rounded=0;orthogonalLoop=1;jettySize=auto;html=1;" edge="1" parent="1" source="c_QSOdAd1hn4ASY3aFln-32" target="c_QSOdAd1hn4ASY3aFln-30">
          <mxGeometry relative="1" as="geometry" />
        </mxCell>
        <mxCell id="c_QSOdAd1hn4ASY3aFln-32" value="factura_id" style="ellipse;whiteSpace=wrap;html=1;align=center;container=0;" vertex="1" parent="1">
          <mxGeometry x="3520" y="1164" width="100" height="40" as="geometry" />
        </mxCell>
        <mxCell id="c_QSOdAd1hn4ASY3aFln-33" style="edgeStyle=none;rounded=0;orthogonalLoop=1;jettySize=auto;html=1;" edge="1" parent="1" source="c_QSOdAd1hn4ASY3aFln-34" target="c_QSOdAd1hn4ASY3aFln-30">
          <mxGeometry relative="1" as="geometry" />
        </mxCell>
        <mxCell id="c_QSOdAd1hn4ASY3aFln-34" value="pago id" style="ellipse;whiteSpace=wrap;html=1;align=center;fontStyle=4;container=0;" vertex="1" parent="1">
          <mxGeometry x="3530" y="1225" width="100" height="40" as="geometry" />
        </mxCell>
        <mxCell id="c_QSOdAd1hn4ASY3aFln-35" style="edgeStyle=none;rounded=0;orthogonalLoop=1;jettySize=auto;html=1;" edge="1" parent="1" source="c_QSOdAd1hn4ASY3aFln-29" target="c_QSOdAd1hn4ASY3aFln-30">
          <mxGeometry relative="1" as="geometry" />
        </mxCell>
        <mxCell id="c_QSOdAd1hn4ASY3aFln-36" style="edgeStyle=none;rounded=0;orthogonalLoop=1;jettySize=auto;html=1;" edge="1" parent="1" source="c_QSOdAd1hn4ASY3aFln-37" target="c_QSOdAd1hn4ASY3aFln-30">
          <mxGeometry relative="1" as="geometry" />
        </mxCell>
        <mxCell id="c_QSOdAd1hn4ASY3aFln-37" value="metodo_pago" style="ellipse;whiteSpace=wrap;html=1;align=center;" vertex="1" parent="1">
          <mxGeometry x="3651" y="1070" width="100" height="40" as="geometry" />
        </mxCell>
        <mxCell id="c_QSOdAd1hn4ASY3aFln-38" style="edgeStyle=none;rounded=0;orthogonalLoop=1;jettySize=auto;html=1;" edge="1" parent="1" source="c_QSOdAd1hn4ASY3aFln-39" target="c_QSOdAd1hn4ASY3aFln-30">
          <mxGeometry relative="1" as="geometry" />
        </mxCell>
        <mxCell id="c_QSOdAd1hn4ASY3aFln-39" value="fecha_pago" style="ellipse;whiteSpace=wrap;html=1;align=center;" vertex="1" parent="1">
          <mxGeometry x="3771" y="1090" width="100" height="40" as="geometry" />
        </mxCell>
        <mxCell id="c_QSOdAd1hn4ASY3aFln-40" style="edgeStyle=none;rounded=0;orthogonalLoop=1;jettySize=auto;html=1;" edge="1" parent="1" source="c_QSOdAd1hn4ASY3aFln-41" target="c_QSOdAd1hn4ASY3aFln-30">
          <mxGeometry relative="1" as="geometry" />
        </mxCell>
        <mxCell id="c_QSOdAd1hn4ASY3aFln-41" value="creado_por" style="ellipse;whiteSpace=wrap;html=1;align=center;" vertex="1" parent="1">
          <mxGeometry x="3801" y="1145" width="100" height="40" as="geometry" />
        </mxCell>
        <mxCell id="c_QSOdAd1hn4ASY3aFln-49" style="edgeStyle=none;rounded=0;orthogonalLoop=1;jettySize=auto;html=1;" edge="1" parent="1" source="c_QSOdAd1hn4ASY3aFln-48" target="c_QSOdAd1hn4ASY3aFln-37">
          <mxGeometry relative="1" as="geometry" />
        </mxCell>
        <mxCell id="c_QSOdAd1hn4ASY3aFln-48" value="transferencia&lt;div&gt;efectivo&lt;/div&gt;&lt;div&gt;tarjeta&lt;/div&gt;&lt;div&gt;otro&lt;/div&gt;" style="text;html=1;align=center;verticalAlign=middle;resizable=0;points=[];autosize=1;strokeColor=none;fillColor=none;" vertex="1" parent="1">
          <mxGeometry x="3656" y="955" width="90" height="70" as="geometry" />
        </mxCell>
        <mxCell id="c_QSOdAd1hn4ASY3aFln-52" value="" style="edgeStyle=none;rounded=0;orthogonalLoop=1;jettySize=auto;html=1;" edge="1" parent="1" source="c_QSOdAd1hn4ASY3aFln-51" target="c_QSOdAd1hn4ASY3aFln-41">
          <mxGeometry relative="1" as="geometry" />
        </mxCell>
        <mxCell id="c_QSOdAd1hn4ASY3aFln-51" value="usuario que hizo&lt;div&gt;el registro del pago&lt;/div&gt;" style="text;html=1;align=center;verticalAlign=middle;resizable=0;points=[];autosize=1;strokeColor=none;fillColor=none;" vertex="1" parent="1">
          <mxGeometry x="3960" y="1145" width="130" height="40" as="geometry" />
        </mxCell>
        <mxCell id="c_QSOdAd1hn4ASY3aFln-56" style="edgeStyle=none;rounded=0;orthogonalLoop=1;jettySize=auto;html=1;" edge="1" parent="1" source="c_QSOdAd1hn4ASY3aFln-55" target="HD9Zg6J0hAq_qelVRoTC-141">
          <mxGeometry relative="1" as="geometry" />
        </mxCell>
        <mxCell id="c_QSOdAd1hn4ASY3aFln-55" value="nota,&lt;div&gt;descripción del movimiento&lt;/div&gt;" style="text;html=1;align=center;verticalAlign=middle;resizable=0;points=[];autosize=1;strokeColor=none;fillColor=none;" vertex="1" parent="1">
          <mxGeometry x="-715" y="853" width="170" height="40" as="geometry" />
        </mxCell>
        <mxCell id="c_QSOdAd1hn4ASY3aFln-58" style="edgeStyle=none;rounded=0;orthogonalLoop=1;jettySize=auto;html=1;" edge="1" parent="1" source="c_QSOdAd1hn4ASY3aFln-57" target="HD9Zg6J0hAq_qelVRoTC-100">
          <mxGeometry relative="1" as="geometry" />
        </mxCell>
        <mxCell id="c_QSOdAd1hn4ASY3aFln-57" value="proveedor_id" style="ellipse;whiteSpace=wrap;html=1;align=center;" vertex="1" parent="1">
          <mxGeometry x="394.5" y="1035" width="100" height="40" as="geometry" />
        </mxCell>
        <mxCell id="c_QSOdAd1hn4ASY3aFln-60" style="edgeStyle=none;rounded=0;orthogonalLoop=1;jettySize=auto;html=1;" edge="1" parent="1" source="c_QSOdAd1hn4ASY3aFln-59" target="IBQwi4AjMWrCEyMd1zAB-2">
          <mxGeometry relative="1" as="geometry" />
        </mxCell>
        <mxCell id="c_QSOdAd1hn4ASY3aFln-59" value="trabajo_id" style="ellipse;whiteSpace=wrap;html=1;align=center;container=0;" vertex="1" parent="1">
          <mxGeometry x="1864" y="1040" width="100" height="40" as="geometry" />
        </mxCell>
      </root>
    </mxGraphModel>
  </diagram>
  <diagram id="eSLJiDnoGr5_GpaGdphy" name="Modelo de tablas">
    <mxGraphModel dx="1674" dy="839" grid="1" gridSize="10" guides="1" tooltips="1" connect="1" arrows="1" fold="1" page="1" pageScale="1" pageWidth="827" pageHeight="1169" math="0" shadow="0">
      <root>
        <mxCell id="0" />
        <mxCell id="1" parent="0" />
      </root>
    </mxGraphModel>
  </diagram>
</mxfile>
